<mxfile host="app.diagrams.net" modified="2024-07-22T18:10:55.022Z" agent="Mozilla/5.0 (X11; Linux x86_64) AppleWebKit/537.36 (KHTML, like Gecko) Chrome/126.0.0.0 Safari/537.36" etag="wVtG6XMCcFOd577oWmw5" version="24.7.1" type="github">
  <diagram name="Page-1" id="Bcz48vcSh-P0rASuCrQG">
    <mxGraphModel dx="3614" dy="1700" grid="1" gridSize="10" guides="1" tooltips="1" connect="1" arrows="1" fold="1" page="1" pageScale="1" pageWidth="1100" pageHeight="850" math="0" shadow="0">
      <root>
        <mxCell id="0" />
        <mxCell id="1" parent="0" />
        <mxCell id="vBjkKqUcBOy8eqSLdtir-1" value="" style="endArrow=classic;html=1;rounded=0;" edge="1" parent="1">
          <mxGeometry width="50" height="50" relative="1" as="geometry">
            <mxPoint x="1080" y="80" as="sourcePoint" />
            <mxPoint x="-1030" y="80" as="targetPoint" />
          </mxGeometry>
        </mxCell>
        <mxCell id="vBjkKqUcBOy8eqSLdtir-4" style="edgeStyle=orthogonalEdgeStyle;rounded=0;orthogonalLoop=1;jettySize=auto;html=1;exitX=0;exitY=0.75;exitDx=0;exitDy=0;exitPerimeter=0;entryX=0;entryY=0.75;entryDx=0;entryDy=0;entryPerimeter=0;startArrow=oval;startFill=1;" edge="1" parent="1" target="vBjkKqUcBOy8eqSLdtir-2">
          <mxGeometry relative="1" as="geometry">
            <mxPoint x="994.8888888888889" y="80" as="sourcePoint" />
          </mxGeometry>
        </mxCell>
        <mxCell id="vBjkKqUcBOy8eqSLdtir-5" style="edgeStyle=orthogonalEdgeStyle;rounded=0;orthogonalLoop=1;jettySize=auto;html=1;exitX=0;exitY=0.25;exitDx=0;exitDy=0;exitPerimeter=0;entryX=0;entryY=0.25;entryDx=0;entryDy=0;entryPerimeter=0;" edge="1" parent="1" target="vBjkKqUcBOy8eqSLdtir-2">
          <mxGeometry relative="1" as="geometry">
            <mxPoint x="1024.888888888889" y="110" as="sourcePoint" />
          </mxGeometry>
        </mxCell>
        <mxCell id="vBjkKqUcBOy8eqSLdtir-38" style="edgeStyle=orthogonalEdgeStyle;rounded=0;orthogonalLoop=1;jettySize=auto;html=1;exitX=1;exitY=0.5;exitDx=0;exitDy=0;exitPerimeter=0;" edge="1" parent="1" source="vBjkKqUcBOy8eqSLdtir-2">
          <mxGeometry relative="1" as="geometry">
            <mxPoint x="1009.6666666666665" y="1072.6666666666667" as="targetPoint" />
          </mxGeometry>
        </mxCell>
        <mxCell id="vBjkKqUcBOy8eqSLdtir-2" value="" style="shape=or;whiteSpace=wrap;html=1;direction=south;" vertex="1" parent="1">
          <mxGeometry x="980" y="140" width="60" height="60" as="geometry" />
        </mxCell>
        <mxCell id="vBjkKqUcBOy8eqSLdtir-6" value="A0" style="text;html=1;align=center;verticalAlign=middle;resizable=0;points=[];autosize=1;strokeColor=none;fillColor=none;" vertex="1" parent="1">
          <mxGeometry x="1006" y="88" width="40" height="30" as="geometry" />
        </mxCell>
        <mxCell id="vBjkKqUcBOy8eqSLdtir-7" style="edgeStyle=orthogonalEdgeStyle;rounded=0;orthogonalLoop=1;jettySize=auto;html=1;exitX=0;exitY=0.75;exitDx=0;exitDy=0;exitPerimeter=0;entryX=0;entryY=0.75;entryDx=0;entryDy=0;entryPerimeter=0;startArrow=oval;startFill=1;" edge="1" parent="1" target="vBjkKqUcBOy8eqSLdtir-9">
          <mxGeometry relative="1" as="geometry">
            <mxPoint x="864.8888888888889" y="80" as="sourcePoint" />
          </mxGeometry>
        </mxCell>
        <mxCell id="vBjkKqUcBOy8eqSLdtir-8" style="edgeStyle=orthogonalEdgeStyle;rounded=0;orthogonalLoop=1;jettySize=auto;html=1;exitX=0;exitY=0.25;exitDx=0;exitDy=0;exitPerimeter=0;entryX=0;entryY=0.25;entryDx=0;entryDy=0;entryPerimeter=0;" edge="1" parent="1" target="vBjkKqUcBOy8eqSLdtir-9">
          <mxGeometry relative="1" as="geometry">
            <mxPoint x="894.8888888888889" y="110" as="sourcePoint" />
          </mxGeometry>
        </mxCell>
        <mxCell id="vBjkKqUcBOy8eqSLdtir-9" value="" style="shape=or;whiteSpace=wrap;html=1;direction=south;" vertex="1" parent="1">
          <mxGeometry x="850" y="140" width="60" height="60" as="geometry" />
        </mxCell>
        <mxCell id="vBjkKqUcBOy8eqSLdtir-10" value="A!" style="text;html=1;align=center;verticalAlign=middle;resizable=0;points=[];autosize=1;strokeColor=none;fillColor=none;" vertex="1" parent="1">
          <mxGeometry x="881" y="88" width="30" height="30" as="geometry" />
        </mxCell>
        <mxCell id="vBjkKqUcBOy8eqSLdtir-11" style="edgeStyle=orthogonalEdgeStyle;rounded=0;orthogonalLoop=1;jettySize=auto;html=1;exitX=0;exitY=0.75;exitDx=0;exitDy=0;exitPerimeter=0;entryX=0;entryY=0.75;entryDx=0;entryDy=0;entryPerimeter=0;startArrow=oval;startFill=1;" edge="1" parent="1" target="vBjkKqUcBOy8eqSLdtir-13">
          <mxGeometry relative="1" as="geometry">
            <mxPoint x="734.8888888888889" y="80" as="sourcePoint" />
          </mxGeometry>
        </mxCell>
        <mxCell id="vBjkKqUcBOy8eqSLdtir-12" style="edgeStyle=orthogonalEdgeStyle;rounded=0;orthogonalLoop=1;jettySize=auto;html=1;exitX=0;exitY=0.25;exitDx=0;exitDy=0;exitPerimeter=0;entryX=0;entryY=0.25;entryDx=0;entryDy=0;entryPerimeter=0;" edge="1" parent="1" target="vBjkKqUcBOy8eqSLdtir-13">
          <mxGeometry relative="1" as="geometry">
            <mxPoint x="764.8888888888889" y="110" as="sourcePoint" />
          </mxGeometry>
        </mxCell>
        <mxCell id="vBjkKqUcBOy8eqSLdtir-13" value="" style="shape=or;whiteSpace=wrap;html=1;direction=south;" vertex="1" parent="1">
          <mxGeometry x="720" y="140" width="60" height="60" as="geometry" />
        </mxCell>
        <mxCell id="vBjkKqUcBOy8eqSLdtir-14" value="A0" style="text;html=1;align=center;verticalAlign=middle;resizable=0;points=[];autosize=1;strokeColor=none;fillColor=none;" vertex="1" parent="1">
          <mxGeometry x="746" y="88" width="40" height="30" as="geometry" />
        </mxCell>
        <mxCell id="vBjkKqUcBOy8eqSLdtir-15" value="" style="endArrow=classic;html=1;rounded=0;" edge="1" parent="1">
          <mxGeometry width="50" height="50" relative="1" as="geometry">
            <mxPoint x="1090" y="240" as="sourcePoint" />
            <mxPoint x="-1022.5" y="240" as="targetPoint" />
          </mxGeometry>
        </mxCell>
        <mxCell id="vBjkKqUcBOy8eqSLdtir-16" style="edgeStyle=orthogonalEdgeStyle;rounded=0;orthogonalLoop=1;jettySize=auto;html=1;exitX=0;exitY=0.75;exitDx=0;exitDy=0;exitPerimeter=0;entryX=0;entryY=0.75;entryDx=0;entryDy=0;entryPerimeter=0;startArrow=oval;startFill=1;" edge="1" parent="1" target="vBjkKqUcBOy8eqSLdtir-18">
          <mxGeometry relative="1" as="geometry">
            <mxPoint x="824.8888888888889" y="240" as="sourcePoint" />
          </mxGeometry>
        </mxCell>
        <mxCell id="vBjkKqUcBOy8eqSLdtir-17" style="edgeStyle=orthogonalEdgeStyle;rounded=0;orthogonalLoop=1;jettySize=auto;html=1;exitX=0;exitY=0.25;exitDx=0;exitDy=0;exitPerimeter=0;entryX=0;entryY=0.25;entryDx=0;entryDy=0;entryPerimeter=0;" edge="1" parent="1" target="vBjkKqUcBOy8eqSLdtir-18">
          <mxGeometry relative="1" as="geometry">
            <mxPoint x="854.8888888888889" y="270" as="sourcePoint" />
          </mxGeometry>
        </mxCell>
        <mxCell id="vBjkKqUcBOy8eqSLdtir-22" style="edgeStyle=orthogonalEdgeStyle;rounded=0;orthogonalLoop=1;jettySize=auto;html=1;exitX=1;exitY=0.5;exitDx=0;exitDy=0;exitPerimeter=0;entryX=0.274;entryY=0.012;entryDx=0;entryDy=0;entryPerimeter=0;" edge="1" parent="1" source="vBjkKqUcBOy8eqSLdtir-18" target="vBjkKqUcBOy8eqSLdtir-20">
          <mxGeometry relative="1" as="geometry">
            <mxPoint x="840.0952380952381" y="390" as="targetPoint" />
          </mxGeometry>
        </mxCell>
        <mxCell id="vBjkKqUcBOy8eqSLdtir-18" value="" style="shape=or;whiteSpace=wrap;html=1;direction=south;" vertex="1" parent="1">
          <mxGeometry x="810" y="300" width="60" height="60" as="geometry" />
        </mxCell>
        <mxCell id="vBjkKqUcBOy8eqSLdtir-19" value="A0" style="text;html=1;align=center;verticalAlign=middle;resizable=0;points=[];autosize=1;strokeColor=none;fillColor=none;" vertex="1" parent="1">
          <mxGeometry x="836" y="248" width="40" height="30" as="geometry" />
        </mxCell>
        <mxCell id="vBjkKqUcBOy8eqSLdtir-39" style="edgeStyle=orthogonalEdgeStyle;rounded=0;orthogonalLoop=1;jettySize=auto;html=1;exitX=0.5;exitY=1;exitDx=0;exitDy=0;" edge="1" parent="1" source="vBjkKqUcBOy8eqSLdtir-20">
          <mxGeometry relative="1" as="geometry">
            <mxPoint x="856.4444444444443" y="1086.6666666666667" as="targetPoint" />
          </mxGeometry>
        </mxCell>
        <mxCell id="vBjkKqUcBOy8eqSLdtir-77" style="edgeStyle=orthogonalEdgeStyle;rounded=0;orthogonalLoop=1;jettySize=auto;html=1;exitX=0;exitY=0.5;exitDx=0;exitDy=0;entryX=1;entryY=0.5;entryDx=0;entryDy=0;" edge="1" parent="1" source="vBjkKqUcBOy8eqSLdtir-20" target="vBjkKqUcBOy8eqSLdtir-29">
          <mxGeometry relative="1" as="geometry" />
        </mxCell>
        <mxCell id="vBjkKqUcBOy8eqSLdtir-20" value="&lt;font style=&quot;font-size: 17px;&quot;&gt;&lt;b&gt;HA&lt;/b&gt;&lt;/font&gt;" style="whiteSpace=wrap;html=1;aspect=fixed;" vertex="1" parent="1">
          <mxGeometry x="821" y="400" width="70" height="70" as="geometry" />
        </mxCell>
        <mxCell id="vBjkKqUcBOy8eqSLdtir-21" style="edgeStyle=orthogonalEdgeStyle;rounded=0;orthogonalLoop=1;jettySize=auto;html=1;exitX=1;exitY=0.5;exitDx=0;exitDy=0;exitPerimeter=0;entryX=0.844;entryY=0.029;entryDx=0;entryDy=0;entryPerimeter=0;startArrow=oval;startFill=1;" edge="1" parent="1" source="vBjkKqUcBOy8eqSLdtir-9" target="vBjkKqUcBOy8eqSLdtir-20">
          <mxGeometry relative="1" as="geometry" />
        </mxCell>
        <mxCell id="vBjkKqUcBOy8eqSLdtir-23" style="edgeStyle=orthogonalEdgeStyle;rounded=0;orthogonalLoop=1;jettySize=auto;html=1;exitX=0;exitY=0.75;exitDx=0;exitDy=0;exitPerimeter=0;entryX=0;entryY=0.75;entryDx=0;entryDy=0;entryPerimeter=0;startArrow=oval;startFill=1;" edge="1" target="vBjkKqUcBOy8eqSLdtir-27" parent="1">
          <mxGeometry relative="1" as="geometry">
            <mxPoint x="694.8888888888889" y="240" as="sourcePoint" />
          </mxGeometry>
        </mxCell>
        <mxCell id="vBjkKqUcBOy8eqSLdtir-24" style="edgeStyle=orthogonalEdgeStyle;rounded=0;orthogonalLoop=1;jettySize=auto;html=1;exitX=0;exitY=0.25;exitDx=0;exitDy=0;exitPerimeter=0;entryX=0;entryY=0.25;entryDx=0;entryDy=0;entryPerimeter=0;" edge="1" target="vBjkKqUcBOy8eqSLdtir-27" parent="1">
          <mxGeometry relative="1" as="geometry">
            <mxPoint x="724.8888888888889" y="270" as="sourcePoint" />
          </mxGeometry>
        </mxCell>
        <mxCell id="vBjkKqUcBOy8eqSLdtir-25" style="edgeStyle=orthogonalEdgeStyle;rounded=0;orthogonalLoop=1;jettySize=auto;html=1;exitX=1;exitY=0.5;exitDx=0;exitDy=0;exitPerimeter=0;entryX=0.274;entryY=0.012;entryDx=0;entryDy=0;entryPerimeter=0;" edge="1" source="vBjkKqUcBOy8eqSLdtir-27" target="vBjkKqUcBOy8eqSLdtir-29" parent="1">
          <mxGeometry relative="1" as="geometry">
            <mxPoint x="710.0952380952381" y="390" as="targetPoint" />
          </mxGeometry>
        </mxCell>
        <mxCell id="vBjkKqUcBOy8eqSLdtir-26" style="edgeStyle=orthogonalEdgeStyle;rounded=0;orthogonalLoop=1;jettySize=auto;html=1;exitX=1;exitY=0.5;exitDx=0;exitDy=0;exitPerimeter=0;entryX=0.844;entryY=0.029;entryDx=0;entryDy=0;entryPerimeter=0;startArrow=oval;startFill=1;" edge="1" target="vBjkKqUcBOy8eqSLdtir-29" parent="1">
          <mxGeometry relative="1" as="geometry">
            <mxPoint x="750" y="200" as="sourcePoint" />
          </mxGeometry>
        </mxCell>
        <mxCell id="vBjkKqUcBOy8eqSLdtir-27" value="" style="shape=or;whiteSpace=wrap;html=1;direction=south;" vertex="1" parent="1">
          <mxGeometry x="680" y="300" width="60" height="60" as="geometry" />
        </mxCell>
        <mxCell id="vBjkKqUcBOy8eqSLdtir-28" value="A1" style="text;html=1;align=center;verticalAlign=middle;resizable=0;points=[];autosize=1;strokeColor=none;fillColor=none;" vertex="1" parent="1">
          <mxGeometry x="706" y="248" width="40" height="30" as="geometry" />
        </mxCell>
        <mxCell id="vBjkKqUcBOy8eqSLdtir-78" style="edgeStyle=orthogonalEdgeStyle;rounded=0;orthogonalLoop=1;jettySize=auto;html=1;exitX=0;exitY=0.5;exitDx=0;exitDy=0;entryX=1;entryY=0.5;entryDx=0;entryDy=0;" edge="1" parent="1" source="vBjkKqUcBOy8eqSLdtir-29" target="vBjkKqUcBOy8eqSLdtir-55">
          <mxGeometry relative="1" as="geometry" />
        </mxCell>
        <mxCell id="vBjkKqUcBOy8eqSLdtir-29" value="&lt;font style=&quot;font-size: 16px;&quot;&gt;&lt;b&gt;FA&lt;/b&gt;&lt;/font&gt;" style="whiteSpace=wrap;html=1;aspect=fixed;" vertex="1" parent="1">
          <mxGeometry x="691" y="400" width="70" height="70" as="geometry" />
        </mxCell>
        <mxCell id="vBjkKqUcBOy8eqSLdtir-30" value="" style="endArrow=classic;html=1;rounded=0;" edge="1" parent="1">
          <mxGeometry width="50" height="50" relative="1" as="geometry">
            <mxPoint x="1080" y="510" as="sourcePoint" />
            <mxPoint x="-1030" y="510" as="targetPoint" />
          </mxGeometry>
        </mxCell>
        <mxCell id="vBjkKqUcBOy8eqSLdtir-31" style="edgeStyle=orthogonalEdgeStyle;rounded=0;orthogonalLoop=1;jettySize=auto;html=1;exitX=0;exitY=0.75;exitDx=0;exitDy=0;exitPerimeter=0;entryX=0;entryY=0.75;entryDx=0;entryDy=0;entryPerimeter=0;startArrow=oval;startFill=1;" edge="1" target="vBjkKqUcBOy8eqSLdtir-34" parent="1">
          <mxGeometry relative="1" as="geometry">
            <mxPoint x="670.8888888888889" y="510" as="sourcePoint" />
          </mxGeometry>
        </mxCell>
        <mxCell id="vBjkKqUcBOy8eqSLdtir-32" style="edgeStyle=orthogonalEdgeStyle;rounded=0;orthogonalLoop=1;jettySize=auto;html=1;exitX=0;exitY=0.25;exitDx=0;exitDy=0;exitPerimeter=0;entryX=0;entryY=0.25;entryDx=0;entryDy=0;entryPerimeter=0;" edge="1" target="vBjkKqUcBOy8eqSLdtir-34" parent="1">
          <mxGeometry relative="1" as="geometry">
            <mxPoint x="700.8888888888889" y="540" as="sourcePoint" />
          </mxGeometry>
        </mxCell>
        <mxCell id="vBjkKqUcBOy8eqSLdtir-33" style="edgeStyle=orthogonalEdgeStyle;rounded=0;orthogonalLoop=1;jettySize=auto;html=1;exitX=1;exitY=0.5;exitDx=0;exitDy=0;exitPerimeter=0;entryX=0.274;entryY=0.012;entryDx=0;entryDy=0;entryPerimeter=0;" edge="1" source="vBjkKqUcBOy8eqSLdtir-34" target="vBjkKqUcBOy8eqSLdtir-36" parent="1">
          <mxGeometry relative="1" as="geometry">
            <mxPoint x="686.0952380952381" y="660" as="targetPoint" />
          </mxGeometry>
        </mxCell>
        <mxCell id="vBjkKqUcBOy8eqSLdtir-34" value="" style="shape=or;whiteSpace=wrap;html=1;direction=south;" vertex="1" parent="1">
          <mxGeometry x="656" y="570" width="60" height="60" as="geometry" />
        </mxCell>
        <mxCell id="vBjkKqUcBOy8eqSLdtir-35" value="A0" style="text;html=1;align=center;verticalAlign=middle;resizable=0;points=[];autosize=1;strokeColor=none;fillColor=none;" vertex="1" parent="1">
          <mxGeometry x="682" y="518" width="40" height="30" as="geometry" />
        </mxCell>
        <mxCell id="vBjkKqUcBOy8eqSLdtir-40" style="edgeStyle=orthogonalEdgeStyle;rounded=0;orthogonalLoop=1;jettySize=auto;html=1;exitX=0.5;exitY=1;exitDx=0;exitDy=0;" edge="1" parent="1" source="vBjkKqUcBOy8eqSLdtir-36">
          <mxGeometry relative="1" as="geometry">
            <mxPoint x="701.7777777777778" y="1070" as="targetPoint" />
          </mxGeometry>
        </mxCell>
        <mxCell id="vBjkKqUcBOy8eqSLdtir-79" style="edgeStyle=orthogonalEdgeStyle;rounded=0;orthogonalLoop=1;jettySize=auto;html=1;exitX=0;exitY=0.5;exitDx=0;exitDy=0;entryX=1;entryY=0.5;entryDx=0;entryDy=0;" edge="1" parent="1" source="vBjkKqUcBOy8eqSLdtir-36" target="vBjkKqUcBOy8eqSLdtir-58">
          <mxGeometry relative="1" as="geometry" />
        </mxCell>
        <mxCell id="vBjkKqUcBOy8eqSLdtir-36" value="&lt;font style=&quot;font-size: 17px;&quot;&gt;&lt;b&gt;HA&lt;/b&gt;&lt;/font&gt;" style="whiteSpace=wrap;html=1;aspect=fixed;" vertex="1" parent="1">
          <mxGeometry x="667" y="670" width="70" height="70" as="geometry" />
        </mxCell>
        <mxCell id="vBjkKqUcBOy8eqSLdtir-37" style="edgeStyle=orthogonalEdgeStyle;rounded=0;orthogonalLoop=1;jettySize=auto;html=1;exitX=1;exitY=0.5;exitDx=0;exitDy=0;exitPerimeter=0;entryX=0.844;entryY=0.029;entryDx=0;entryDy=0;entryPerimeter=0;startArrow=oval;startFill=1;" edge="1" target="vBjkKqUcBOy8eqSLdtir-36" parent="1">
          <mxGeometry relative="1" as="geometry">
            <mxPoint x="726" y="470" as="sourcePoint" />
          </mxGeometry>
        </mxCell>
        <mxCell id="vBjkKqUcBOy8eqSLdtir-41" style="edgeStyle=orthogonalEdgeStyle;rounded=0;orthogonalLoop=1;jettySize=auto;html=1;exitX=0;exitY=0.75;exitDx=0;exitDy=0;exitPerimeter=0;entryX=0;entryY=0.75;entryDx=0;entryDy=0;entryPerimeter=0;startArrow=oval;startFill=1;" edge="1" target="vBjkKqUcBOy8eqSLdtir-51" parent="1">
          <mxGeometry relative="1" as="geometry">
            <mxPoint x="615.8888888888889" y="80" as="sourcePoint" />
          </mxGeometry>
        </mxCell>
        <mxCell id="vBjkKqUcBOy8eqSLdtir-42" style="edgeStyle=orthogonalEdgeStyle;rounded=0;orthogonalLoop=1;jettySize=auto;html=1;exitX=0;exitY=0.25;exitDx=0;exitDy=0;exitPerimeter=0;entryX=0;entryY=0.25;entryDx=0;entryDy=0;entryPerimeter=0;" edge="1" target="vBjkKqUcBOy8eqSLdtir-51" parent="1">
          <mxGeometry relative="1" as="geometry">
            <mxPoint x="645.8888888888889" y="110" as="sourcePoint" />
          </mxGeometry>
        </mxCell>
        <mxCell id="vBjkKqUcBOy8eqSLdtir-43" style="edgeStyle=orthogonalEdgeStyle;rounded=0;orthogonalLoop=1;jettySize=auto;html=1;exitX=0;exitY=0.75;exitDx=0;exitDy=0;exitPerimeter=0;entryX=0;entryY=0.75;entryDx=0;entryDy=0;entryPerimeter=0;startArrow=oval;startFill=1;" edge="1" target="vBjkKqUcBOy8eqSLdtir-53" parent="1">
          <mxGeometry relative="1" as="geometry">
            <mxPoint x="575.8888888888889" y="240" as="sourcePoint" />
          </mxGeometry>
        </mxCell>
        <mxCell id="vBjkKqUcBOy8eqSLdtir-44" style="edgeStyle=orthogonalEdgeStyle;rounded=0;orthogonalLoop=1;jettySize=auto;html=1;exitX=0;exitY=0.25;exitDx=0;exitDy=0;exitPerimeter=0;entryX=0;entryY=0.25;entryDx=0;entryDy=0;entryPerimeter=0;" edge="1" target="vBjkKqUcBOy8eqSLdtir-53" parent="1">
          <mxGeometry relative="1" as="geometry">
            <mxPoint x="605.8888888888889" y="270" as="sourcePoint" />
          </mxGeometry>
        </mxCell>
        <mxCell id="vBjkKqUcBOy8eqSLdtir-45" style="edgeStyle=orthogonalEdgeStyle;rounded=0;orthogonalLoop=1;jettySize=auto;html=1;exitX=1;exitY=0.5;exitDx=0;exitDy=0;exitPerimeter=0;entryX=0.274;entryY=0.012;entryDx=0;entryDy=0;entryPerimeter=0;" edge="1" source="vBjkKqUcBOy8eqSLdtir-53" target="vBjkKqUcBOy8eqSLdtir-55" parent="1">
          <mxGeometry relative="1" as="geometry">
            <mxPoint x="591.0952380952381" y="390" as="targetPoint" />
          </mxGeometry>
        </mxCell>
        <mxCell id="vBjkKqUcBOy8eqSLdtir-46" style="edgeStyle=orthogonalEdgeStyle;rounded=0;orthogonalLoop=1;jettySize=auto;html=1;exitX=1;exitY=0.5;exitDx=0;exitDy=0;exitPerimeter=0;entryX=0.844;entryY=0.029;entryDx=0;entryDy=0;entryPerimeter=0;startArrow=oval;startFill=1;" edge="1" target="vBjkKqUcBOy8eqSLdtir-55" parent="1">
          <mxGeometry relative="1" as="geometry">
            <mxPoint x="631" y="200" as="sourcePoint" />
          </mxGeometry>
        </mxCell>
        <mxCell id="vBjkKqUcBOy8eqSLdtir-47" style="edgeStyle=orthogonalEdgeStyle;rounded=0;orthogonalLoop=1;jettySize=auto;html=1;exitX=0;exitY=0.75;exitDx=0;exitDy=0;exitPerimeter=0;entryX=0;entryY=0.75;entryDx=0;entryDy=0;entryPerimeter=0;startArrow=oval;startFill=1;" edge="1" target="vBjkKqUcBOy8eqSLdtir-56" parent="1">
          <mxGeometry relative="1" as="geometry">
            <mxPoint x="551.8888888888889" y="510" as="sourcePoint" />
          </mxGeometry>
        </mxCell>
        <mxCell id="vBjkKqUcBOy8eqSLdtir-48" style="edgeStyle=orthogonalEdgeStyle;rounded=0;orthogonalLoop=1;jettySize=auto;html=1;exitX=0;exitY=0.25;exitDx=0;exitDy=0;exitPerimeter=0;entryX=0;entryY=0.25;entryDx=0;entryDy=0;entryPerimeter=0;" edge="1" target="vBjkKqUcBOy8eqSLdtir-56" parent="1">
          <mxGeometry relative="1" as="geometry">
            <mxPoint x="581.8888888888889" y="540" as="sourcePoint" />
          </mxGeometry>
        </mxCell>
        <mxCell id="vBjkKqUcBOy8eqSLdtir-49" style="edgeStyle=orthogonalEdgeStyle;rounded=0;orthogonalLoop=1;jettySize=auto;html=1;exitX=1;exitY=0.5;exitDx=0;exitDy=0;exitPerimeter=0;entryX=0.274;entryY=0.012;entryDx=0;entryDy=0;entryPerimeter=0;" edge="1" source="vBjkKqUcBOy8eqSLdtir-56" target="vBjkKqUcBOy8eqSLdtir-58" parent="1">
          <mxGeometry relative="1" as="geometry">
            <mxPoint x="567.0952380952381" y="660" as="targetPoint" />
          </mxGeometry>
        </mxCell>
        <mxCell id="vBjkKqUcBOy8eqSLdtir-50" style="edgeStyle=orthogonalEdgeStyle;rounded=0;orthogonalLoop=1;jettySize=auto;html=1;exitX=1;exitY=0.5;exitDx=0;exitDy=0;exitPerimeter=0;entryX=0.844;entryY=0.029;entryDx=0;entryDy=0;entryPerimeter=0;startArrow=oval;startFill=1;" edge="1" target="vBjkKqUcBOy8eqSLdtir-58" parent="1">
          <mxGeometry relative="1" as="geometry">
            <mxPoint x="607" y="470" as="sourcePoint" />
          </mxGeometry>
        </mxCell>
        <mxCell id="vBjkKqUcBOy8eqSLdtir-51" value="" style="shape=or;whiteSpace=wrap;html=1;direction=south;" vertex="1" parent="1">
          <mxGeometry x="601" y="140" width="60" height="60" as="geometry" />
        </mxCell>
        <mxCell id="vBjkKqUcBOy8eqSLdtir-52" value="A0" style="text;html=1;align=center;verticalAlign=middle;resizable=0;points=[];autosize=1;strokeColor=none;fillColor=none;" vertex="1" parent="1">
          <mxGeometry x="627" y="88" width="40" height="30" as="geometry" />
        </mxCell>
        <mxCell id="vBjkKqUcBOy8eqSLdtir-53" value="" style="shape=or;whiteSpace=wrap;html=1;direction=south;" vertex="1" parent="1">
          <mxGeometry x="561" y="300" width="60" height="60" as="geometry" />
        </mxCell>
        <mxCell id="vBjkKqUcBOy8eqSLdtir-54" value="A0" style="text;html=1;align=center;verticalAlign=middle;resizable=0;points=[];autosize=1;strokeColor=none;fillColor=none;" vertex="1" parent="1">
          <mxGeometry x="587" y="248" width="40" height="30" as="geometry" />
        </mxCell>
        <mxCell id="vBjkKqUcBOy8eqSLdtir-55" value="&lt;font style=&quot;font-size: 16px;&quot;&gt;&lt;b&gt;FA&lt;/b&gt;&lt;/font&gt;" style="whiteSpace=wrap;html=1;aspect=fixed;" vertex="1" parent="1">
          <mxGeometry x="572" y="400" width="70" height="70" as="geometry" />
        </mxCell>
        <mxCell id="vBjkKqUcBOy8eqSLdtir-56" value="" style="shape=or;whiteSpace=wrap;html=1;direction=south;" vertex="1" parent="1">
          <mxGeometry x="537" y="570" width="60" height="60" as="geometry" />
        </mxCell>
        <mxCell id="vBjkKqUcBOy8eqSLdtir-57" value="A1" style="text;html=1;align=center;verticalAlign=middle;resizable=0;points=[];autosize=1;strokeColor=none;fillColor=none;" vertex="1" parent="1">
          <mxGeometry x="563" y="518" width="40" height="30" as="geometry" />
        </mxCell>
        <mxCell id="vBjkKqUcBOy8eqSLdtir-58" value="&lt;font style=&quot;font-size: 17px;&quot;&gt;&lt;b&gt;FA&lt;/b&gt;&lt;/font&gt;" style="whiteSpace=wrap;html=1;aspect=fixed;" vertex="1" parent="1">
          <mxGeometry x="548" y="670" width="70" height="70" as="geometry" />
        </mxCell>
        <mxCell id="vBjkKqUcBOy8eqSLdtir-80" value="C" style="text;html=1;align=center;verticalAlign=middle;resizable=0;points=[];autosize=1;strokeColor=none;fillColor=none;" vertex="1" parent="1">
          <mxGeometry x="786" y="410" width="30" height="30" as="geometry" />
        </mxCell>
        <mxCell id="vBjkKqUcBOy8eqSLdtir-82" value="C" style="text;html=1;align=center;verticalAlign=middle;resizable=0;points=[];autosize=1;strokeColor=none;fillColor=none;" vertex="1" parent="1">
          <mxGeometry x="656" y="410" width="30" height="30" as="geometry" />
        </mxCell>
        <mxCell id="vBjkKqUcBOy8eqSLdtir-83" value="C" style="text;html=1;align=center;verticalAlign=middle;resizable=0;points=[];autosize=1;strokeColor=none;fillColor=none;" vertex="1" parent="1">
          <mxGeometry x="631" y="680" width="30" height="30" as="geometry" />
        </mxCell>
        <mxCell id="vBjkKqUcBOy8eqSLdtir-84" style="edgeStyle=orthogonalEdgeStyle;rounded=0;orthogonalLoop=1;jettySize=auto;html=1;exitX=0;exitY=0.75;exitDx=0;exitDy=0;exitPerimeter=0;entryX=0;entryY=0.75;entryDx=0;entryDy=0;entryPerimeter=0;startArrow=oval;startFill=1;" edge="1" parent="1" target="vBjkKqUcBOy8eqSLdtir-94">
          <mxGeometry relative="1" as="geometry">
            <mxPoint x="1258.888888888889" y="10" as="sourcePoint" />
          </mxGeometry>
        </mxCell>
        <mxCell id="vBjkKqUcBOy8eqSLdtir-85" style="edgeStyle=orthogonalEdgeStyle;rounded=0;orthogonalLoop=1;jettySize=auto;html=1;exitX=0;exitY=0.25;exitDx=0;exitDy=0;exitPerimeter=0;entryX=0;entryY=0.25;entryDx=0;entryDy=0;entryPerimeter=0;" edge="1" parent="1" target="vBjkKqUcBOy8eqSLdtir-94">
          <mxGeometry relative="1" as="geometry">
            <mxPoint x="1288.888888888889" y="40" as="sourcePoint" />
          </mxGeometry>
        </mxCell>
        <mxCell id="vBjkKqUcBOy8eqSLdtir-86" style="edgeStyle=orthogonalEdgeStyle;rounded=0;orthogonalLoop=1;jettySize=auto;html=1;exitX=0;exitY=0.75;exitDx=0;exitDy=0;exitPerimeter=0;entryX=0;entryY=0.75;entryDx=0;entryDy=0;entryPerimeter=0;startArrow=oval;startFill=1;" edge="1" parent="1" target="vBjkKqUcBOy8eqSLdtir-96">
          <mxGeometry relative="1" as="geometry">
            <mxPoint x="1218.888888888889" y="170" as="sourcePoint" />
          </mxGeometry>
        </mxCell>
        <mxCell id="vBjkKqUcBOy8eqSLdtir-87" style="edgeStyle=orthogonalEdgeStyle;rounded=0;orthogonalLoop=1;jettySize=auto;html=1;exitX=0;exitY=0.25;exitDx=0;exitDy=0;exitPerimeter=0;entryX=0;entryY=0.25;entryDx=0;entryDy=0;entryPerimeter=0;" edge="1" parent="1" target="vBjkKqUcBOy8eqSLdtir-96">
          <mxGeometry relative="1" as="geometry">
            <mxPoint x="1248.888888888889" y="200" as="sourcePoint" />
          </mxGeometry>
        </mxCell>
        <mxCell id="vBjkKqUcBOy8eqSLdtir-88" style="edgeStyle=orthogonalEdgeStyle;rounded=0;orthogonalLoop=1;jettySize=auto;html=1;exitX=1;exitY=0.5;exitDx=0;exitDy=0;exitPerimeter=0;entryX=0.274;entryY=0.012;entryDx=0;entryDy=0;entryPerimeter=0;" edge="1" parent="1" source="vBjkKqUcBOy8eqSLdtir-96" target="vBjkKqUcBOy8eqSLdtir-98">
          <mxGeometry relative="1" as="geometry">
            <mxPoint x="1234.095238095238" y="320" as="targetPoint" />
          </mxGeometry>
        </mxCell>
        <mxCell id="vBjkKqUcBOy8eqSLdtir-89" style="edgeStyle=orthogonalEdgeStyle;rounded=0;orthogonalLoop=1;jettySize=auto;html=1;exitX=1;exitY=0.5;exitDx=0;exitDy=0;exitPerimeter=0;entryX=0.844;entryY=0.029;entryDx=0;entryDy=0;entryPerimeter=0;startArrow=oval;startFill=1;" edge="1" parent="1" target="vBjkKqUcBOy8eqSLdtir-98">
          <mxGeometry relative="1" as="geometry">
            <mxPoint x="1274" y="130" as="sourcePoint" />
          </mxGeometry>
        </mxCell>
        <mxCell id="vBjkKqUcBOy8eqSLdtir-90" style="edgeStyle=orthogonalEdgeStyle;rounded=0;orthogonalLoop=1;jettySize=auto;html=1;exitX=0;exitY=0.75;exitDx=0;exitDy=0;exitPerimeter=0;entryX=0;entryY=0.75;entryDx=0;entryDy=0;entryPerimeter=0;startArrow=oval;startFill=1;" edge="1" parent="1" target="vBjkKqUcBOy8eqSLdtir-99">
          <mxGeometry relative="1" as="geometry">
            <mxPoint x="1194.888888888889" y="440" as="sourcePoint" />
          </mxGeometry>
        </mxCell>
        <mxCell id="vBjkKqUcBOy8eqSLdtir-91" style="edgeStyle=orthogonalEdgeStyle;rounded=0;orthogonalLoop=1;jettySize=auto;html=1;exitX=0;exitY=0.25;exitDx=0;exitDy=0;exitPerimeter=0;entryX=0;entryY=0.25;entryDx=0;entryDy=0;entryPerimeter=0;" edge="1" parent="1" target="vBjkKqUcBOy8eqSLdtir-99">
          <mxGeometry relative="1" as="geometry">
            <mxPoint x="1224.888888888889" y="470" as="sourcePoint" />
          </mxGeometry>
        </mxCell>
        <mxCell id="vBjkKqUcBOy8eqSLdtir-92" style="edgeStyle=orthogonalEdgeStyle;rounded=0;orthogonalLoop=1;jettySize=auto;html=1;exitX=1;exitY=0.5;exitDx=0;exitDy=0;exitPerimeter=0;entryX=0.274;entryY=0.012;entryDx=0;entryDy=0;entryPerimeter=0;" edge="1" parent="1" source="vBjkKqUcBOy8eqSLdtir-99" target="vBjkKqUcBOy8eqSLdtir-101">
          <mxGeometry relative="1" as="geometry">
            <mxPoint x="1210.095238095238" y="590" as="targetPoint" />
          </mxGeometry>
        </mxCell>
        <mxCell id="vBjkKqUcBOy8eqSLdtir-93" style="edgeStyle=orthogonalEdgeStyle;rounded=0;orthogonalLoop=1;jettySize=auto;html=1;exitX=1;exitY=0.5;exitDx=0;exitDy=0;exitPerimeter=0;entryX=0.844;entryY=0.029;entryDx=0;entryDy=0;entryPerimeter=0;startArrow=oval;startFill=1;" edge="1" parent="1" target="vBjkKqUcBOy8eqSLdtir-101">
          <mxGeometry relative="1" as="geometry">
            <mxPoint x="1250" y="400" as="sourcePoint" />
          </mxGeometry>
        </mxCell>
        <mxCell id="vBjkKqUcBOy8eqSLdtir-94" value="" style="shape=or;whiteSpace=wrap;html=1;direction=south;" vertex="1" parent="1">
          <mxGeometry x="1244" y="70" width="60" height="60" as="geometry" />
        </mxCell>
        <mxCell id="vBjkKqUcBOy8eqSLdtir-95" value="A0" style="text;html=1;align=center;verticalAlign=middle;resizable=0;points=[];autosize=1;strokeColor=none;fillColor=none;" vertex="1" parent="1">
          <mxGeometry x="1270" y="18" width="40" height="30" as="geometry" />
        </mxCell>
        <mxCell id="vBjkKqUcBOy8eqSLdtir-96" value="" style="shape=or;whiteSpace=wrap;html=1;direction=south;" vertex="1" parent="1">
          <mxGeometry x="1204" y="230" width="60" height="60" as="geometry" />
        </mxCell>
        <mxCell id="vBjkKqUcBOy8eqSLdtir-97" value="A0" style="text;html=1;align=center;verticalAlign=middle;resizable=0;points=[];autosize=1;strokeColor=none;fillColor=none;" vertex="1" parent="1">
          <mxGeometry x="1230" y="178" width="40" height="30" as="geometry" />
        </mxCell>
        <mxCell id="vBjkKqUcBOy8eqSLdtir-98" value="&lt;font style=&quot;font-size: 16px;&quot;&gt;&lt;b&gt;FA&lt;/b&gt;&lt;/font&gt;" style="whiteSpace=wrap;html=1;aspect=fixed;" vertex="1" parent="1">
          <mxGeometry x="1215" y="330" width="70" height="70" as="geometry" />
        </mxCell>
        <mxCell id="vBjkKqUcBOy8eqSLdtir-99" value="" style="shape=or;whiteSpace=wrap;html=1;direction=south;" vertex="1" parent="1">
          <mxGeometry x="1180" y="500" width="60" height="60" as="geometry" />
        </mxCell>
        <mxCell id="vBjkKqUcBOy8eqSLdtir-100" value="A1" style="text;html=1;align=center;verticalAlign=middle;resizable=0;points=[];autosize=1;strokeColor=none;fillColor=none;" vertex="1" parent="1">
          <mxGeometry x="1206" y="448" width="40" height="30" as="geometry" />
        </mxCell>
        <mxCell id="vBjkKqUcBOy8eqSLdtir-101" value="&lt;font style=&quot;font-size: 17px;&quot;&gt;&lt;b&gt;FA&lt;/b&gt;&lt;/font&gt;" style="whiteSpace=wrap;html=1;aspect=fixed;" vertex="1" parent="1">
          <mxGeometry x="1191" y="600" width="70" height="70" as="geometry" />
        </mxCell>
        <mxCell id="vBjkKqUcBOy8eqSLdtir-102" style="edgeStyle=orthogonalEdgeStyle;rounded=0;orthogonalLoop=1;jettySize=auto;html=1;exitX=0;exitY=0.75;exitDx=0;exitDy=0;exitPerimeter=0;entryX=0;entryY=0.75;entryDx=0;entryDy=0;entryPerimeter=0;startArrow=oval;startFill=1;" edge="1" parent="1" target="vBjkKqUcBOy8eqSLdtir-112">
          <mxGeometry relative="1" as="geometry">
            <mxPoint x="498.8888888888889" y="80" as="sourcePoint" />
          </mxGeometry>
        </mxCell>
        <mxCell id="vBjkKqUcBOy8eqSLdtir-103" style="edgeStyle=orthogonalEdgeStyle;rounded=0;orthogonalLoop=1;jettySize=auto;html=1;exitX=0;exitY=0.25;exitDx=0;exitDy=0;exitPerimeter=0;entryX=0;entryY=0.25;entryDx=0;entryDy=0;entryPerimeter=0;" edge="1" parent="1" target="vBjkKqUcBOy8eqSLdtir-112">
          <mxGeometry relative="1" as="geometry">
            <mxPoint x="528.8888888888889" y="110" as="sourcePoint" />
          </mxGeometry>
        </mxCell>
        <mxCell id="vBjkKqUcBOy8eqSLdtir-104" style="edgeStyle=orthogonalEdgeStyle;rounded=0;orthogonalLoop=1;jettySize=auto;html=1;exitX=0;exitY=0.75;exitDx=0;exitDy=0;exitPerimeter=0;entryX=0;entryY=0.75;entryDx=0;entryDy=0;entryPerimeter=0;startArrow=oval;startFill=1;" edge="1" parent="1" target="vBjkKqUcBOy8eqSLdtir-114">
          <mxGeometry relative="1" as="geometry">
            <mxPoint x="458.8888888888889" y="240" as="sourcePoint" />
          </mxGeometry>
        </mxCell>
        <mxCell id="vBjkKqUcBOy8eqSLdtir-105" style="edgeStyle=orthogonalEdgeStyle;rounded=0;orthogonalLoop=1;jettySize=auto;html=1;exitX=0;exitY=0.25;exitDx=0;exitDy=0;exitPerimeter=0;entryX=0;entryY=0.25;entryDx=0;entryDy=0;entryPerimeter=0;" edge="1" parent="1" target="vBjkKqUcBOy8eqSLdtir-114">
          <mxGeometry relative="1" as="geometry">
            <mxPoint x="488.8888888888889" y="270" as="sourcePoint" />
          </mxGeometry>
        </mxCell>
        <mxCell id="vBjkKqUcBOy8eqSLdtir-106" style="edgeStyle=orthogonalEdgeStyle;rounded=0;orthogonalLoop=1;jettySize=auto;html=1;exitX=1;exitY=0.5;exitDx=0;exitDy=0;exitPerimeter=0;entryX=0.274;entryY=0.012;entryDx=0;entryDy=0;entryPerimeter=0;" edge="1" parent="1" source="vBjkKqUcBOy8eqSLdtir-114" target="vBjkKqUcBOy8eqSLdtir-116">
          <mxGeometry relative="1" as="geometry">
            <mxPoint x="474.0952380952381" y="390" as="targetPoint" />
          </mxGeometry>
        </mxCell>
        <mxCell id="vBjkKqUcBOy8eqSLdtir-107" style="edgeStyle=orthogonalEdgeStyle;rounded=0;orthogonalLoop=1;jettySize=auto;html=1;exitX=1;exitY=0.5;exitDx=0;exitDy=0;exitPerimeter=0;entryX=0.844;entryY=0.029;entryDx=0;entryDy=0;entryPerimeter=0;startArrow=oval;startFill=1;" edge="1" parent="1" target="vBjkKqUcBOy8eqSLdtir-116">
          <mxGeometry relative="1" as="geometry">
            <mxPoint x="514" y="200" as="sourcePoint" />
          </mxGeometry>
        </mxCell>
        <mxCell id="vBjkKqUcBOy8eqSLdtir-108" style="edgeStyle=orthogonalEdgeStyle;rounded=0;orthogonalLoop=1;jettySize=auto;html=1;exitX=0;exitY=0.75;exitDx=0;exitDy=0;exitPerimeter=0;entryX=0;entryY=0.75;entryDx=0;entryDy=0;entryPerimeter=0;startArrow=oval;startFill=1;" edge="1" parent="1" target="vBjkKqUcBOy8eqSLdtir-117">
          <mxGeometry relative="1" as="geometry">
            <mxPoint x="434.8888888888889" y="510" as="sourcePoint" />
          </mxGeometry>
        </mxCell>
        <mxCell id="vBjkKqUcBOy8eqSLdtir-109" style="edgeStyle=orthogonalEdgeStyle;rounded=0;orthogonalLoop=1;jettySize=auto;html=1;exitX=0;exitY=0.25;exitDx=0;exitDy=0;exitPerimeter=0;entryX=0;entryY=0.25;entryDx=0;entryDy=0;entryPerimeter=0;" edge="1" parent="1" target="vBjkKqUcBOy8eqSLdtir-117">
          <mxGeometry relative="1" as="geometry">
            <mxPoint x="464.8888888888889" y="540" as="sourcePoint" />
          </mxGeometry>
        </mxCell>
        <mxCell id="vBjkKqUcBOy8eqSLdtir-110" style="edgeStyle=orthogonalEdgeStyle;rounded=0;orthogonalLoop=1;jettySize=auto;html=1;exitX=1;exitY=0.5;exitDx=0;exitDy=0;exitPerimeter=0;entryX=0.274;entryY=0.012;entryDx=0;entryDy=0;entryPerimeter=0;" edge="1" parent="1" source="vBjkKqUcBOy8eqSLdtir-117" target="vBjkKqUcBOy8eqSLdtir-119">
          <mxGeometry relative="1" as="geometry">
            <mxPoint x="450.0952380952381" y="660" as="targetPoint" />
          </mxGeometry>
        </mxCell>
        <mxCell id="vBjkKqUcBOy8eqSLdtir-111" style="edgeStyle=orthogonalEdgeStyle;rounded=0;orthogonalLoop=1;jettySize=auto;html=1;exitX=1;exitY=0.5;exitDx=0;exitDy=0;exitPerimeter=0;entryX=0.844;entryY=0.029;entryDx=0;entryDy=0;entryPerimeter=0;startArrow=oval;startFill=1;" edge="1" parent="1" target="vBjkKqUcBOy8eqSLdtir-119">
          <mxGeometry relative="1" as="geometry">
            <mxPoint x="490" y="470" as="sourcePoint" />
          </mxGeometry>
        </mxCell>
        <mxCell id="vBjkKqUcBOy8eqSLdtir-112" value="" style="shape=or;whiteSpace=wrap;html=1;direction=south;" vertex="1" parent="1">
          <mxGeometry x="484" y="140" width="60" height="60" as="geometry" />
        </mxCell>
        <mxCell id="vBjkKqUcBOy8eqSLdtir-113" value="A0" style="text;html=1;align=center;verticalAlign=middle;resizable=0;points=[];autosize=1;strokeColor=none;fillColor=none;" vertex="1" parent="1">
          <mxGeometry x="510" y="88" width="40" height="30" as="geometry" />
        </mxCell>
        <mxCell id="vBjkKqUcBOy8eqSLdtir-114" value="" style="shape=or;whiteSpace=wrap;html=1;direction=south;" vertex="1" parent="1">
          <mxGeometry x="444" y="300" width="60" height="60" as="geometry" />
        </mxCell>
        <mxCell id="vBjkKqUcBOy8eqSLdtir-115" value="A0" style="text;html=1;align=center;verticalAlign=middle;resizable=0;points=[];autosize=1;strokeColor=none;fillColor=none;" vertex="1" parent="1">
          <mxGeometry x="470" y="248" width="40" height="30" as="geometry" />
        </mxCell>
        <mxCell id="vBjkKqUcBOy8eqSLdtir-116" value="&lt;font style=&quot;font-size: 16px;&quot;&gt;&lt;b&gt;FA&lt;/b&gt;&lt;/font&gt;" style="whiteSpace=wrap;html=1;aspect=fixed;" vertex="1" parent="1">
          <mxGeometry x="455" y="400" width="70" height="70" as="geometry" />
        </mxCell>
        <mxCell id="vBjkKqUcBOy8eqSLdtir-117" value="" style="shape=or;whiteSpace=wrap;html=1;direction=south;" vertex="1" parent="1">
          <mxGeometry x="420" y="570" width="60" height="60" as="geometry" />
        </mxCell>
        <mxCell id="vBjkKqUcBOy8eqSLdtir-118" value="A1" style="text;html=1;align=center;verticalAlign=middle;resizable=0;points=[];autosize=1;strokeColor=none;fillColor=none;" vertex="1" parent="1">
          <mxGeometry x="446" y="518" width="40" height="30" as="geometry" />
        </mxCell>
        <mxCell id="vBjkKqUcBOy8eqSLdtir-119" value="&lt;font style=&quot;font-size: 17px;&quot;&gt;&lt;b&gt;FA&lt;/b&gt;&lt;/font&gt;" style="whiteSpace=wrap;html=1;aspect=fixed;" vertex="1" parent="1">
          <mxGeometry x="431" y="670" width="70" height="70" as="geometry" />
        </mxCell>
        <mxCell id="vBjkKqUcBOy8eqSLdtir-120" style="edgeStyle=orthogonalEdgeStyle;rounded=0;orthogonalLoop=1;jettySize=auto;html=1;exitX=0;exitY=0.75;exitDx=0;exitDy=0;exitPerimeter=0;entryX=0;entryY=0.75;entryDx=0;entryDy=0;entryPerimeter=0;startArrow=oval;startFill=1;" edge="1" parent="1" target="vBjkKqUcBOy8eqSLdtir-130">
          <mxGeometry relative="1" as="geometry">
            <mxPoint x="-34.111111111111086" y="80" as="sourcePoint" />
          </mxGeometry>
        </mxCell>
        <mxCell id="vBjkKqUcBOy8eqSLdtir-121" style="edgeStyle=orthogonalEdgeStyle;rounded=0;orthogonalLoop=1;jettySize=auto;html=1;exitX=0;exitY=0.25;exitDx=0;exitDy=0;exitPerimeter=0;entryX=0;entryY=0.25;entryDx=0;entryDy=0;entryPerimeter=0;" edge="1" parent="1" target="vBjkKqUcBOy8eqSLdtir-130">
          <mxGeometry relative="1" as="geometry">
            <mxPoint x="-4.111111111111086" y="110" as="sourcePoint" />
          </mxGeometry>
        </mxCell>
        <mxCell id="vBjkKqUcBOy8eqSLdtir-122" style="edgeStyle=orthogonalEdgeStyle;rounded=0;orthogonalLoop=1;jettySize=auto;html=1;exitX=0;exitY=0.75;exitDx=0;exitDy=0;exitPerimeter=0;entryX=0;entryY=0.75;entryDx=0;entryDy=0;entryPerimeter=0;startArrow=oval;startFill=1;" edge="1" parent="1" target="vBjkKqUcBOy8eqSLdtir-132">
          <mxGeometry relative="1" as="geometry">
            <mxPoint x="-74.11111111111109" y="240" as="sourcePoint" />
          </mxGeometry>
        </mxCell>
        <mxCell id="vBjkKqUcBOy8eqSLdtir-123" style="edgeStyle=orthogonalEdgeStyle;rounded=0;orthogonalLoop=1;jettySize=auto;html=1;exitX=0;exitY=0.25;exitDx=0;exitDy=0;exitPerimeter=0;entryX=0;entryY=0.25;entryDx=0;entryDy=0;entryPerimeter=0;" edge="1" parent="1" target="vBjkKqUcBOy8eqSLdtir-132">
          <mxGeometry relative="1" as="geometry">
            <mxPoint x="-44.111111111111086" y="270" as="sourcePoint" />
          </mxGeometry>
        </mxCell>
        <mxCell id="vBjkKqUcBOy8eqSLdtir-124" style="edgeStyle=orthogonalEdgeStyle;rounded=0;orthogonalLoop=1;jettySize=auto;html=1;exitX=1;exitY=0.5;exitDx=0;exitDy=0;exitPerimeter=0;entryX=0.274;entryY=0.012;entryDx=0;entryDy=0;entryPerimeter=0;" edge="1" parent="1" source="vBjkKqUcBOy8eqSLdtir-132" target="vBjkKqUcBOy8eqSLdtir-134">
          <mxGeometry relative="1" as="geometry">
            <mxPoint x="-58.904761904761926" y="390" as="targetPoint" />
          </mxGeometry>
        </mxCell>
        <mxCell id="vBjkKqUcBOy8eqSLdtir-125" style="edgeStyle=orthogonalEdgeStyle;rounded=0;orthogonalLoop=1;jettySize=auto;html=1;exitX=1;exitY=0.5;exitDx=0;exitDy=0;exitPerimeter=0;entryX=0.843;entryY=-0.031;entryDx=0;entryDy=0;entryPerimeter=0;startArrow=oval;startFill=0;" edge="1" parent="1">
          <mxGeometry relative="1" as="geometry">
            <mxPoint x="-19" y="202" as="sourcePoint" />
            <mxPoint x="-18.990000000000066" y="399.83000000000004" as="targetPoint" />
          </mxGeometry>
        </mxCell>
        <mxCell id="vBjkKqUcBOy8eqSLdtir-126" style="edgeStyle=orthogonalEdgeStyle;rounded=0;orthogonalLoop=1;jettySize=auto;html=1;exitX=0;exitY=0.75;exitDx=0;exitDy=0;exitPerimeter=0;entryX=0;entryY=0.75;entryDx=0;entryDy=0;entryPerimeter=0;startArrow=oval;startFill=1;" edge="1" parent="1" target="vBjkKqUcBOy8eqSLdtir-135">
          <mxGeometry relative="1" as="geometry">
            <mxPoint x="-98.11111111111109" y="510" as="sourcePoint" />
          </mxGeometry>
        </mxCell>
        <mxCell id="vBjkKqUcBOy8eqSLdtir-127" style="edgeStyle=orthogonalEdgeStyle;rounded=0;orthogonalLoop=1;jettySize=auto;html=1;exitX=0;exitY=0.25;exitDx=0;exitDy=0;exitPerimeter=0;entryX=0;entryY=0.25;entryDx=0;entryDy=0;entryPerimeter=0;" edge="1" parent="1" target="vBjkKqUcBOy8eqSLdtir-135">
          <mxGeometry relative="1" as="geometry">
            <mxPoint x="-68.11111111111109" y="540" as="sourcePoint" />
          </mxGeometry>
        </mxCell>
        <mxCell id="vBjkKqUcBOy8eqSLdtir-128" style="edgeStyle=orthogonalEdgeStyle;rounded=0;orthogonalLoop=1;jettySize=auto;html=1;exitX=1;exitY=0.5;exitDx=0;exitDy=0;exitPerimeter=0;entryX=0.274;entryY=0.012;entryDx=0;entryDy=0;entryPerimeter=0;" edge="1" parent="1" source="vBjkKqUcBOy8eqSLdtir-135" target="vBjkKqUcBOy8eqSLdtir-137">
          <mxGeometry relative="1" as="geometry">
            <mxPoint x="-82.90476190476193" y="660" as="targetPoint" />
          </mxGeometry>
        </mxCell>
        <mxCell id="vBjkKqUcBOy8eqSLdtir-129" style="edgeStyle=orthogonalEdgeStyle;rounded=0;orthogonalLoop=1;jettySize=auto;html=1;exitX=1;exitY=0.5;exitDx=0;exitDy=0;exitPerimeter=0;entryX=0.844;entryY=0.029;entryDx=0;entryDy=0;entryPerimeter=0;startArrow=oval;startFill=1;" edge="1" parent="1" target="vBjkKqUcBOy8eqSLdtir-137">
          <mxGeometry relative="1" as="geometry">
            <mxPoint x="-43" y="470" as="sourcePoint" />
          </mxGeometry>
        </mxCell>
        <mxCell id="vBjkKqUcBOy8eqSLdtir-130" value="" style="shape=or;whiteSpace=wrap;html=1;direction=south;" vertex="1" parent="1">
          <mxGeometry x="-49" y="140" width="60" height="60" as="geometry" />
        </mxCell>
        <mxCell id="vBjkKqUcBOy8eqSLdtir-131" value="A15" style="text;html=1;align=center;verticalAlign=middle;resizable=0;points=[];autosize=1;strokeColor=none;fillColor=none;" vertex="1" parent="1">
          <mxGeometry x="-23" y="88" width="40" height="30" as="geometry" />
        </mxCell>
        <mxCell id="vBjkKqUcBOy8eqSLdtir-132" value="" style="shape=or;whiteSpace=wrap;html=1;direction=south;" vertex="1" parent="1">
          <mxGeometry x="-89" y="300" width="60" height="60" as="geometry" />
        </mxCell>
        <mxCell id="vBjkKqUcBOy8eqSLdtir-133" value="A14" style="text;html=1;align=center;verticalAlign=middle;resizable=0;points=[];autosize=1;strokeColor=none;fillColor=none;" vertex="1" parent="1">
          <mxGeometry x="-63" y="248" width="40" height="30" as="geometry" />
        </mxCell>
        <mxCell id="vBjkKqUcBOy8eqSLdtir-134" value="&lt;font style=&quot;font-size: 16px;&quot;&gt;&lt;b&gt;FA&lt;/b&gt;&lt;/font&gt;" style="whiteSpace=wrap;html=1;aspect=fixed;" vertex="1" parent="1">
          <mxGeometry x="-78" y="400" width="70" height="70" as="geometry" />
        </mxCell>
        <mxCell id="vBjkKqUcBOy8eqSLdtir-135" value="" style="shape=or;whiteSpace=wrap;html=1;direction=south;" vertex="1" parent="1">
          <mxGeometry x="-113" y="570" width="60" height="60" as="geometry" />
        </mxCell>
        <mxCell id="vBjkKqUcBOy8eqSLdtir-136" value="A13" style="text;html=1;align=center;verticalAlign=middle;resizable=0;points=[];autosize=1;strokeColor=none;fillColor=none;" vertex="1" parent="1">
          <mxGeometry x="-87" y="518" width="40" height="30" as="geometry" />
        </mxCell>
        <mxCell id="vBjkKqUcBOy8eqSLdtir-137" value="&lt;font style=&quot;font-size: 17px;&quot;&gt;&lt;b&gt;FA&lt;/b&gt;&lt;/font&gt;" style="whiteSpace=wrap;html=1;aspect=fixed;" vertex="1" parent="1">
          <mxGeometry x="-102" y="670" width="70" height="70" as="geometry" />
        </mxCell>
        <mxCell id="vBjkKqUcBOy8eqSLdtir-159" style="edgeStyle=orthogonalEdgeStyle;rounded=0;orthogonalLoop=1;jettySize=auto;html=1;exitX=0;exitY=0.75;exitDx=0;exitDy=0;exitPerimeter=0;entryX=0;entryY=0.75;entryDx=0;entryDy=0;entryPerimeter=0;startArrow=oval;startFill=1;" edge="1" target="vBjkKqUcBOy8eqSLdtir-169" parent="1">
          <mxGeometry relative="1" as="geometry">
            <mxPoint x="-193.1111111111111" y="240" as="sourcePoint" />
          </mxGeometry>
        </mxCell>
        <mxCell id="vBjkKqUcBOy8eqSLdtir-160" style="edgeStyle=orthogonalEdgeStyle;rounded=0;orthogonalLoop=1;jettySize=auto;html=1;exitX=0;exitY=0.25;exitDx=0;exitDy=0;exitPerimeter=0;entryX=0;entryY=0.25;entryDx=0;entryDy=0;entryPerimeter=0;" edge="1" target="vBjkKqUcBOy8eqSLdtir-169" parent="1">
          <mxGeometry relative="1" as="geometry">
            <mxPoint x="-163.1111111111111" y="270" as="sourcePoint" />
          </mxGeometry>
        </mxCell>
        <mxCell id="vBjkKqUcBOy8eqSLdtir-161" style="edgeStyle=orthogonalEdgeStyle;rounded=0;orthogonalLoop=1;jettySize=auto;html=1;exitX=1;exitY=0.5;exitDx=0;exitDy=0;exitPerimeter=0;entryX=0.274;entryY=0.012;entryDx=0;entryDy=0;entryPerimeter=0;" edge="1" source="vBjkKqUcBOy8eqSLdtir-169" target="vBjkKqUcBOy8eqSLdtir-171" parent="1">
          <mxGeometry relative="1" as="geometry">
            <mxPoint x="-177.90476190476193" y="390" as="targetPoint" />
          </mxGeometry>
        </mxCell>
        <mxCell id="vBjkKqUcBOy8eqSLdtir-162" style="edgeStyle=orthogonalEdgeStyle;rounded=0;orthogonalLoop=1;jettySize=auto;html=1;entryX=0.843;entryY=-0.031;entryDx=0;entryDy=0;entryPerimeter=0;startArrow=none;startFill=0;" edge="1" parent="1">
          <mxGeometry relative="1" as="geometry">
            <mxPoint x="-138" y="360" as="sourcePoint" />
            <mxPoint x="-137.99000000000007" y="399.83000000000004" as="targetPoint" />
          </mxGeometry>
        </mxCell>
        <mxCell id="vBjkKqUcBOy8eqSLdtir-163" style="edgeStyle=orthogonalEdgeStyle;rounded=0;orthogonalLoop=1;jettySize=auto;html=1;exitX=0;exitY=0.75;exitDx=0;exitDy=0;exitPerimeter=0;entryX=0;entryY=0.75;entryDx=0;entryDy=0;entryPerimeter=0;startArrow=oval;startFill=1;" edge="1" target="vBjkKqUcBOy8eqSLdtir-172" parent="1">
          <mxGeometry relative="1" as="geometry">
            <mxPoint x="-217.1111111111111" y="510" as="sourcePoint" />
          </mxGeometry>
        </mxCell>
        <mxCell id="vBjkKqUcBOy8eqSLdtir-164" style="edgeStyle=orthogonalEdgeStyle;rounded=0;orthogonalLoop=1;jettySize=auto;html=1;exitX=0;exitY=0.25;exitDx=0;exitDy=0;exitPerimeter=0;entryX=0;entryY=0.25;entryDx=0;entryDy=0;entryPerimeter=0;" edge="1" target="vBjkKqUcBOy8eqSLdtir-172" parent="1">
          <mxGeometry relative="1" as="geometry">
            <mxPoint x="-187.1111111111111" y="540" as="sourcePoint" />
          </mxGeometry>
        </mxCell>
        <mxCell id="vBjkKqUcBOy8eqSLdtir-165" style="edgeStyle=orthogonalEdgeStyle;rounded=0;orthogonalLoop=1;jettySize=auto;html=1;exitX=1;exitY=0.5;exitDx=0;exitDy=0;exitPerimeter=0;entryX=0.274;entryY=0.012;entryDx=0;entryDy=0;entryPerimeter=0;" edge="1" source="vBjkKqUcBOy8eqSLdtir-172" target="vBjkKqUcBOy8eqSLdtir-174" parent="1">
          <mxGeometry relative="1" as="geometry">
            <mxPoint x="-201.90476190476193" y="660" as="targetPoint" />
          </mxGeometry>
        </mxCell>
        <mxCell id="vBjkKqUcBOy8eqSLdtir-166" style="edgeStyle=orthogonalEdgeStyle;rounded=0;orthogonalLoop=1;jettySize=auto;html=1;exitX=1;exitY=0.5;exitDx=0;exitDy=0;exitPerimeter=0;entryX=0.844;entryY=0.029;entryDx=0;entryDy=0;entryPerimeter=0;startArrow=oval;startFill=1;" edge="1" target="vBjkKqUcBOy8eqSLdtir-174" parent="1">
          <mxGeometry relative="1" as="geometry">
            <mxPoint x="-162" y="470" as="sourcePoint" />
          </mxGeometry>
        </mxCell>
        <mxCell id="vBjkKqUcBOy8eqSLdtir-169" value="" style="shape=or;whiteSpace=wrap;html=1;direction=south;" vertex="1" parent="1">
          <mxGeometry x="-208" y="300" width="60" height="60" as="geometry" />
        </mxCell>
        <mxCell id="vBjkKqUcBOy8eqSLdtir-170" value="A15" style="text;html=1;align=center;verticalAlign=middle;resizable=0;points=[];autosize=1;strokeColor=none;fillColor=none;" vertex="1" parent="1">
          <mxGeometry x="-182" y="248" width="40" height="30" as="geometry" />
        </mxCell>
        <mxCell id="vBjkKqUcBOy8eqSLdtir-229" style="edgeStyle=orthogonalEdgeStyle;rounded=0;orthogonalLoop=1;jettySize=auto;html=1;exitX=0;exitY=0.5;exitDx=0;exitDy=0;entryX=0.75;entryY=0;entryDx=0;entryDy=0;" edge="1" parent="1" source="vBjkKqUcBOy8eqSLdtir-171" target="vBjkKqUcBOy8eqSLdtir-189">
          <mxGeometry relative="1" as="geometry" />
        </mxCell>
        <mxCell id="vBjkKqUcBOy8eqSLdtir-171" value="&lt;font style=&quot;font-size: 16px;&quot;&gt;&lt;b&gt;FA&lt;/b&gt;&lt;/font&gt;" style="whiteSpace=wrap;html=1;aspect=fixed;" vertex="1" parent="1">
          <mxGeometry x="-197" y="400" width="70" height="70" as="geometry" />
        </mxCell>
        <mxCell id="vBjkKqUcBOy8eqSLdtir-172" value="" style="shape=or;whiteSpace=wrap;html=1;direction=south;" vertex="1" parent="1">
          <mxGeometry x="-232" y="570" width="60" height="60" as="geometry" />
        </mxCell>
        <mxCell id="vBjkKqUcBOy8eqSLdtir-173" value="A14" style="text;html=1;align=center;verticalAlign=middle;resizable=0;points=[];autosize=1;strokeColor=none;fillColor=none;" vertex="1" parent="1">
          <mxGeometry x="-206" y="518" width="40" height="30" as="geometry" />
        </mxCell>
        <mxCell id="vBjkKqUcBOy8eqSLdtir-174" value="&lt;font style=&quot;font-size: 17px;&quot;&gt;&lt;b&gt;FA&lt;/b&gt;&lt;/font&gt;" style="whiteSpace=wrap;html=1;aspect=fixed;" vertex="1" parent="1">
          <mxGeometry x="-221" y="670" width="70" height="70" as="geometry" />
        </mxCell>
        <mxCell id="vBjkKqUcBOy8eqSLdtir-175" value="1" style="text;html=1;align=center;verticalAlign=middle;resizable=0;points=[];autosize=1;strokeColor=none;fillColor=none;" vertex="1" parent="1">
          <mxGeometry x="-153" y="338" width="30" height="30" as="geometry" />
        </mxCell>
        <mxCell id="vBjkKqUcBOy8eqSLdtir-180" style="edgeStyle=orthogonalEdgeStyle;rounded=0;orthogonalLoop=1;jettySize=auto;html=1;exitX=0;exitY=0.75;exitDx=0;exitDy=0;exitPerimeter=0;entryX=0;entryY=0.75;entryDx=0;entryDy=0;entryPerimeter=0;startArrow=oval;startFill=1;" edge="1" target="vBjkKqUcBOy8eqSLdtir-187" parent="1">
          <mxGeometry relative="1" as="geometry">
            <mxPoint x="-315.1111111111111" y="510" as="sourcePoint" />
          </mxGeometry>
        </mxCell>
        <mxCell id="vBjkKqUcBOy8eqSLdtir-181" style="edgeStyle=orthogonalEdgeStyle;rounded=0;orthogonalLoop=1;jettySize=auto;html=1;exitX=0;exitY=0.25;exitDx=0;exitDy=0;exitPerimeter=0;entryX=0;entryY=0.25;entryDx=0;entryDy=0;entryPerimeter=0;" edge="1" target="vBjkKqUcBOy8eqSLdtir-187" parent="1">
          <mxGeometry relative="1" as="geometry">
            <mxPoint x="-285.1111111111111" y="540" as="sourcePoint" />
          </mxGeometry>
        </mxCell>
        <mxCell id="vBjkKqUcBOy8eqSLdtir-182" style="edgeStyle=orthogonalEdgeStyle;rounded=0;orthogonalLoop=1;jettySize=auto;html=1;exitX=1;exitY=0.5;exitDx=0;exitDy=0;exitPerimeter=0;entryX=0.274;entryY=0.012;entryDx=0;entryDy=0;entryPerimeter=0;" edge="1" source="vBjkKqUcBOy8eqSLdtir-187" target="vBjkKqUcBOy8eqSLdtir-189" parent="1">
          <mxGeometry relative="1" as="geometry">
            <mxPoint x="-299.9047619047619" y="660" as="targetPoint" />
          </mxGeometry>
        </mxCell>
        <mxCell id="vBjkKqUcBOy8eqSLdtir-187" value="" style="shape=or;whiteSpace=wrap;html=1;direction=south;" vertex="1" parent="1">
          <mxGeometry x="-330" y="570" width="60" height="60" as="geometry" />
        </mxCell>
        <mxCell id="vBjkKqUcBOy8eqSLdtir-188" value="A15" style="text;html=1;align=center;verticalAlign=middle;resizable=0;points=[];autosize=1;strokeColor=none;fillColor=none;" vertex="1" parent="1">
          <mxGeometry x="-304" y="518" width="40" height="30" as="geometry" />
        </mxCell>
        <mxCell id="vBjkKqUcBOy8eqSLdtir-189" value="&lt;font style=&quot;font-size: 17px;&quot;&gt;&lt;b&gt;FA&lt;/b&gt;&lt;/font&gt;" style="whiteSpace=wrap;html=1;aspect=fixed;" vertex="1" parent="1">
          <mxGeometry x="-319" y="670" width="70" height="70" as="geometry" />
        </mxCell>
        <mxCell id="vBjkKqUcBOy8eqSLdtir-193" style="edgeStyle=orthogonalEdgeStyle;rounded=0;orthogonalLoop=1;jettySize=auto;html=1;exitX=0;exitY=0.75;exitDx=0;exitDy=0;exitPerimeter=0;entryX=0;entryY=0.75;entryDx=0;entryDy=0;entryPerimeter=0;startArrow=oval;startFill=1;" edge="1" target="vBjkKqUcBOy8eqSLdtir-203" parent="1">
          <mxGeometry relative="1" as="geometry">
            <mxPoint x="70.88888888888891" y="80" as="sourcePoint" />
          </mxGeometry>
        </mxCell>
        <mxCell id="vBjkKqUcBOy8eqSLdtir-194" style="edgeStyle=orthogonalEdgeStyle;rounded=0;orthogonalLoop=1;jettySize=auto;html=1;exitX=0;exitY=0.25;exitDx=0;exitDy=0;exitPerimeter=0;entryX=0;entryY=0.25;entryDx=0;entryDy=0;entryPerimeter=0;" edge="1" target="vBjkKqUcBOy8eqSLdtir-203" parent="1">
          <mxGeometry relative="1" as="geometry">
            <mxPoint x="100.88888888888891" y="110" as="sourcePoint" />
          </mxGeometry>
        </mxCell>
        <mxCell id="vBjkKqUcBOy8eqSLdtir-195" style="edgeStyle=orthogonalEdgeStyle;rounded=0;orthogonalLoop=1;jettySize=auto;html=1;exitX=0;exitY=0.75;exitDx=0;exitDy=0;exitPerimeter=0;entryX=0;entryY=0.75;entryDx=0;entryDy=0;entryPerimeter=0;startArrow=oval;startFill=1;" edge="1" target="vBjkKqUcBOy8eqSLdtir-205" parent="1">
          <mxGeometry relative="1" as="geometry">
            <mxPoint x="30.888888888888914" y="240" as="sourcePoint" />
          </mxGeometry>
        </mxCell>
        <mxCell id="vBjkKqUcBOy8eqSLdtir-196" style="edgeStyle=orthogonalEdgeStyle;rounded=0;orthogonalLoop=1;jettySize=auto;html=1;exitX=0;exitY=0.25;exitDx=0;exitDy=0;exitPerimeter=0;entryX=0;entryY=0.25;entryDx=0;entryDy=0;entryPerimeter=0;" edge="1" target="vBjkKqUcBOy8eqSLdtir-205" parent="1">
          <mxGeometry relative="1" as="geometry">
            <mxPoint x="60.888888888888914" y="270" as="sourcePoint" />
          </mxGeometry>
        </mxCell>
        <mxCell id="vBjkKqUcBOy8eqSLdtir-197" style="edgeStyle=orthogonalEdgeStyle;rounded=0;orthogonalLoop=1;jettySize=auto;html=1;exitX=1;exitY=0.5;exitDx=0;exitDy=0;exitPerimeter=0;entryX=0.274;entryY=0.012;entryDx=0;entryDy=0;entryPerimeter=0;" edge="1" source="vBjkKqUcBOy8eqSLdtir-205" target="vBjkKqUcBOy8eqSLdtir-207" parent="1">
          <mxGeometry relative="1" as="geometry">
            <mxPoint x="46.095238095238074" y="390" as="targetPoint" />
          </mxGeometry>
        </mxCell>
        <mxCell id="vBjkKqUcBOy8eqSLdtir-198" style="edgeStyle=orthogonalEdgeStyle;rounded=0;orthogonalLoop=1;jettySize=auto;html=1;exitX=1;exitY=0.5;exitDx=0;exitDy=0;exitPerimeter=0;entryX=0.844;entryY=0.029;entryDx=0;entryDy=0;entryPerimeter=0;startArrow=oval;startFill=1;" edge="1" target="vBjkKqUcBOy8eqSLdtir-207" parent="1">
          <mxGeometry relative="1" as="geometry">
            <mxPoint x="86" y="200" as="sourcePoint" />
          </mxGeometry>
        </mxCell>
        <mxCell id="vBjkKqUcBOy8eqSLdtir-199" style="edgeStyle=orthogonalEdgeStyle;rounded=0;orthogonalLoop=1;jettySize=auto;html=1;exitX=0;exitY=0.75;exitDx=0;exitDy=0;exitPerimeter=0;entryX=0;entryY=0.75;entryDx=0;entryDy=0;entryPerimeter=0;startArrow=oval;startFill=1;" edge="1" target="vBjkKqUcBOy8eqSLdtir-208" parent="1">
          <mxGeometry relative="1" as="geometry">
            <mxPoint x="6.888888888888914" y="510" as="sourcePoint" />
          </mxGeometry>
        </mxCell>
        <mxCell id="vBjkKqUcBOy8eqSLdtir-200" style="edgeStyle=orthogonalEdgeStyle;rounded=0;orthogonalLoop=1;jettySize=auto;html=1;exitX=0;exitY=0.25;exitDx=0;exitDy=0;exitPerimeter=0;entryX=0;entryY=0.25;entryDx=0;entryDy=0;entryPerimeter=0;" edge="1" target="vBjkKqUcBOy8eqSLdtir-208" parent="1">
          <mxGeometry relative="1" as="geometry">
            <mxPoint x="36.888888888888914" y="540" as="sourcePoint" />
          </mxGeometry>
        </mxCell>
        <mxCell id="vBjkKqUcBOy8eqSLdtir-201" style="edgeStyle=orthogonalEdgeStyle;rounded=0;orthogonalLoop=1;jettySize=auto;html=1;exitX=1;exitY=0.5;exitDx=0;exitDy=0;exitPerimeter=0;entryX=0.274;entryY=0.012;entryDx=0;entryDy=0;entryPerimeter=0;" edge="1" source="vBjkKqUcBOy8eqSLdtir-208" target="vBjkKqUcBOy8eqSLdtir-210" parent="1">
          <mxGeometry relative="1" as="geometry">
            <mxPoint x="22.095238095238074" y="660" as="targetPoint" />
          </mxGeometry>
        </mxCell>
        <mxCell id="vBjkKqUcBOy8eqSLdtir-202" style="edgeStyle=orthogonalEdgeStyle;rounded=0;orthogonalLoop=1;jettySize=auto;html=1;exitX=1;exitY=0.5;exitDx=0;exitDy=0;exitPerimeter=0;entryX=0.844;entryY=0.029;entryDx=0;entryDy=0;entryPerimeter=0;startArrow=oval;startFill=1;" edge="1" target="vBjkKqUcBOy8eqSLdtir-210" parent="1">
          <mxGeometry relative="1" as="geometry">
            <mxPoint x="62" y="470" as="sourcePoint" />
          </mxGeometry>
        </mxCell>
        <mxCell id="vBjkKqUcBOy8eqSLdtir-203" value="" style="shape=or;whiteSpace=wrap;html=1;direction=south;" vertex="1" parent="1">
          <mxGeometry x="56" y="140" width="60" height="60" as="geometry" />
        </mxCell>
        <mxCell id="vBjkKqUcBOy8eqSLdtir-204" value="A14" style="text;html=1;align=center;verticalAlign=middle;resizable=0;points=[];autosize=1;strokeColor=none;fillColor=none;" vertex="1" parent="1">
          <mxGeometry x="82" y="88" width="40" height="30" as="geometry" />
        </mxCell>
        <mxCell id="vBjkKqUcBOy8eqSLdtir-205" value="" style="shape=or;whiteSpace=wrap;html=1;direction=south;" vertex="1" parent="1">
          <mxGeometry x="16" y="300" width="60" height="60" as="geometry" />
        </mxCell>
        <mxCell id="vBjkKqUcBOy8eqSLdtir-206" value="A13" style="text;html=1;align=center;verticalAlign=middle;resizable=0;points=[];autosize=1;strokeColor=none;fillColor=none;" vertex="1" parent="1">
          <mxGeometry x="42" y="248" width="40" height="30" as="geometry" />
        </mxCell>
        <mxCell id="vBjkKqUcBOy8eqSLdtir-207" value="&lt;font style=&quot;font-size: 16px;&quot;&gt;&lt;b&gt;FA&lt;/b&gt;&lt;/font&gt;" style="whiteSpace=wrap;html=1;aspect=fixed;" vertex="1" parent="1">
          <mxGeometry x="27" y="400" width="70" height="70" as="geometry" />
        </mxCell>
        <mxCell id="vBjkKqUcBOy8eqSLdtir-208" value="" style="shape=or;whiteSpace=wrap;html=1;direction=south;" vertex="1" parent="1">
          <mxGeometry x="-8" y="570" width="60" height="60" as="geometry" />
        </mxCell>
        <mxCell id="vBjkKqUcBOy8eqSLdtir-209" value="A12" style="text;html=1;align=center;verticalAlign=middle;resizable=0;points=[];autosize=1;strokeColor=none;fillColor=none;" vertex="1" parent="1">
          <mxGeometry x="18" y="518" width="40" height="30" as="geometry" />
        </mxCell>
        <mxCell id="vBjkKqUcBOy8eqSLdtir-210" value="&lt;font style=&quot;font-size: 17px;&quot;&gt;&lt;b&gt;FA&lt;/b&gt;&lt;/font&gt;" style="whiteSpace=wrap;html=1;aspect=fixed;" vertex="1" parent="1">
          <mxGeometry x="3" y="670" width="70" height="70" as="geometry" />
        </mxCell>
        <mxCell id="vBjkKqUcBOy8eqSLdtir-230" value="A14&lt;span style=&quot;white-space: pre;&quot;&gt;&#x9;&lt;span style=&quot;white-space: pre;&quot;&gt;&#x9;&lt;/span&gt;&lt;/span&gt;&lt;span style=&quot;white-space: pre;&quot;&gt;&#x9;&lt;/span&gt;A13&lt;span style=&quot;white-space: pre;&quot;&gt;&#x9;&lt;span style=&quot;white-space: pre;&quot;&gt;&#x9;&lt;/span&gt;&lt;/span&gt;&lt;span style=&quot;white-space: pre;&quot;&gt;&#x9;&lt;/span&gt;A12&lt;span style=&quot;white-space: pre;&quot;&gt;&#x9;&lt;span style=&quot;white-space: pre;&quot;&gt;&#x9;&lt;/span&gt;&lt;/span&gt;&lt;span style=&quot;white-space: pre;&quot;&gt;&#x9;&lt;/span&gt;A11&lt;span style=&quot;white-space: pre;&quot;&gt;&#x9;&lt;span style=&quot;white-space: pre;&quot;&gt;&#x9;&lt;/span&gt;&lt;/span&gt;&lt;span style=&quot;white-space: pre;&quot;&gt;&#x9;&lt;/span&gt;A10&lt;span style=&quot;white-space: pre;&quot;&gt;&#x9;&lt;span style=&quot;white-space: pre;&quot;&gt;&#x9;&lt;/span&gt;&lt;/span&gt;&lt;span style=&quot;white-space: pre;&quot;&gt;&#x9;&lt;/span&gt;A9&lt;span style=&quot;white-space: pre;&quot;&gt;&#x9;&lt;span style=&quot;white-space: pre;&quot;&gt;&#x9;&lt;/span&gt;&lt;/span&gt;&lt;span style=&quot;white-space: pre;&quot;&gt;&#x9;&lt;/span&gt;A8&lt;span style=&quot;white-space: pre;&quot;&gt;&#x9;&lt;span style=&quot;white-space: pre;&quot;&gt;&#x9;&lt;/span&gt;&lt;/span&gt;&lt;span style=&quot;white-space: pre;&quot;&gt;&#x9;&lt;/span&gt;A7&lt;span style=&quot;white-space: pre;&quot;&gt;&#x9;&lt;span style=&quot;white-space: pre;&quot;&gt;&#x9;&lt;/span&gt;&lt;/span&gt;&lt;span style=&quot;white-space: pre;&quot;&gt;&#x9;&lt;/span&gt;A6&lt;span style=&quot;white-space: pre;&quot;&gt;&#x9;&lt;span style=&quot;white-space: pre;&quot;&gt;&#x9;&lt;/span&gt;&lt;/span&gt;&lt;span style=&quot;white-space: pre;&quot;&gt;&#x9;&lt;/span&gt;A5&lt;span style=&quot;white-space: pre;&quot;&gt;&#x9;&lt;span style=&quot;white-space: pre;&quot;&gt;&#x9;&lt;/span&gt;&lt;/span&gt;&lt;span style=&quot;white-space: pre;&quot;&gt;&#x9;&lt;/span&gt;A4&lt;span style=&quot;white-space: pre;&quot;&gt;&#x9;&lt;span style=&quot;white-space: pre;&quot;&gt;&#x9;&lt;/span&gt;&lt;/span&gt;&lt;span style=&quot;white-space: pre;&quot;&gt;&#x9;&lt;/span&gt;A3&lt;span style=&quot;white-space: pre;&quot;&gt;&#x9;&lt;span style=&quot;white-space: pre;&quot;&gt;&#x9;&lt;/span&gt;&lt;/span&gt;&lt;span style=&quot;white-space: pre;&quot;&gt;&#x9;&lt;/span&gt;A2&lt;span style=&quot;white-space: pre;&quot;&gt;&#x9;&lt;span style=&quot;white-space: pre;&quot;&gt;&#x9;&lt;/span&gt;&lt;/span&gt;&lt;span style=&quot;white-space: pre;&quot;&gt;&#x9;&lt;/span&gt;A1&lt;span style=&quot;white-space: pre;&quot;&gt;&#x9;&lt;span style=&quot;white-space: pre;&quot;&gt;&#x9;&lt;/span&gt;&lt;/span&gt;&lt;span style=&quot;white-space: pre;&quot;&gt;&#x9;&lt;/span&gt;A0" style="text;html=1;align=center;verticalAlign=middle;resizable=0;points=[];autosize=1;strokeColor=none;fillColor=none;" vertex="1" parent="1">
          <mxGeometry x="3211" y="850" width="1160" height="30" as="geometry" />
        </mxCell>
        <mxCell id="vBjkKqUcBOy8eqSLdtir-231" value="B14&lt;span style=&quot;white-space: pre;&quot;&gt;&#x9;&lt;span style=&quot;white-space: pre;&quot;&gt;&#x9;&lt;/span&gt;&lt;/span&gt;&lt;span style=&quot;white-space: pre;&quot;&gt;&#x9;&lt;/span&gt;B13&lt;span style=&quot;white-space: pre;&quot;&gt;&#x9;&lt;span style=&quot;white-space: pre;&quot;&gt;&#x9;&lt;/span&gt;&lt;/span&gt;&lt;span style=&quot;white-space: pre;&quot;&gt;&#x9;&lt;/span&gt;B12&lt;span style=&quot;white-space: pre;&quot;&gt;&#x9;&lt;span style=&quot;white-space: pre;&quot;&gt;&#x9;&lt;/span&gt;&lt;/span&gt;&lt;span style=&quot;white-space: pre;&quot;&gt;&#x9;&lt;/span&gt;B11&lt;span style=&quot;white-space: pre;&quot;&gt;&#x9;&lt;span style=&quot;white-space: pre;&quot;&gt;&#x9;&lt;/span&gt;&lt;/span&gt;&lt;span style=&quot;white-space: pre;&quot;&gt;&#x9;&lt;/span&gt;B10&lt;span style=&quot;white-space: pre;&quot;&gt;&#x9;&lt;span style=&quot;white-space: pre;&quot;&gt;&#x9;&lt;/span&gt;&lt;/span&gt;&lt;span style=&quot;white-space: pre;&quot;&gt;&#x9;&lt;/span&gt;B9&lt;span style=&quot;white-space: pre;&quot;&gt;&#x9;&lt;span style=&quot;white-space: pre;&quot;&gt;&#x9;&lt;/span&gt;&lt;/span&gt;&lt;span style=&quot;white-space: pre;&quot;&gt;&#x9;&lt;/span&gt;B8&lt;span style=&quot;white-space: pre;&quot;&gt;&#x9;&lt;span style=&quot;white-space: pre;&quot;&gt;&#x9;&lt;/span&gt;&lt;/span&gt;&lt;span style=&quot;white-space: pre;&quot;&gt;&#x9;&lt;/span&gt;B7&lt;span style=&quot;white-space: pre;&quot;&gt;&#x9;&lt;span style=&quot;white-space: pre;&quot;&gt;&#x9;&lt;/span&gt;&lt;/span&gt;&lt;span style=&quot;white-space: pre;&quot;&gt;&#x9;&lt;/span&gt;B6&lt;span style=&quot;white-space: pre;&quot;&gt;&#x9;&lt;span style=&quot;white-space: pre;&quot;&gt;&#x9;&lt;/span&gt;&lt;/span&gt;&lt;span style=&quot;white-space: pre;&quot;&gt;&#x9;&lt;/span&gt;B5&lt;span style=&quot;white-space: pre;&quot;&gt;&#x9;&lt;span style=&quot;white-space: pre;&quot;&gt;&#x9;&lt;/span&gt;&lt;/span&gt;&lt;span style=&quot;white-space: pre;&quot;&gt;&#x9;&lt;/span&gt;B4&lt;span style=&quot;white-space: pre;&quot;&gt;&#x9;&lt;span style=&quot;white-space: pre;&quot;&gt;&#x9;&lt;/span&gt;&lt;/span&gt;&lt;span style=&quot;white-space: pre;&quot;&gt;&#x9;&lt;/span&gt;B3&lt;span style=&quot;white-space: pre;&quot;&gt;&#x9;&lt;span style=&quot;white-space: pre;&quot;&gt;&#x9;&lt;/span&gt;&lt;/span&gt;&lt;span style=&quot;white-space: pre;&quot;&gt;&#x9;&lt;/span&gt;B2&lt;span style=&quot;white-space: pre;&quot;&gt;&#x9;&lt;span style=&quot;white-space: pre;&quot;&gt;&#x9;&lt;/span&gt;&lt;/span&gt;&lt;span style=&quot;white-space: pre;&quot;&gt;&#x9;&lt;/span&gt;B1&lt;span style=&quot;white-space: pre;&quot;&gt;&#x9;&lt;span style=&quot;white-space: pre;&quot;&gt;&#x9;&lt;/span&gt;&lt;/span&gt;&lt;span style=&quot;white-space: pre;&quot;&gt;&#x9;&lt;/span&gt;B0" style="text;html=1;align=center;verticalAlign=middle;resizable=0;points=[];autosize=1;strokeColor=none;fillColor=none;" vertex="1" parent="1">
          <mxGeometry x="3211" y="880" width="1160" height="30" as="geometry" />
        </mxCell>
        <mxCell id="vBjkKqUcBOy8eqSLdtir-232" value="" style="endArrow=none;html=1;rounded=0;" edge="1" parent="1">
          <mxGeometry width="50" height="50" relative="1" as="geometry">
            <mxPoint x="1980" y="910" as="sourcePoint" />
            <mxPoint x="4370" y="910" as="targetPoint" />
          </mxGeometry>
        </mxCell>
        <mxCell id="vBjkKqUcBOy8eqSLdtir-239" value="&lt;u&gt;A14.B&lt;/u&gt;&lt;span style=&quot;white-space: pre;&quot;&gt;&#x9;&lt;/span&gt;&lt;span style=&quot;white-space: pre;&quot;&gt;&#x9;&lt;/span&gt;A13.B&lt;span style=&quot;white-space: pre;&quot;&gt;&#x9;&lt;/span&gt;&lt;span style=&quot;white-space: pre;&quot;&gt;&#x9;&lt;/span&gt;A12.B&lt;span style=&quot;white-space: pre;&quot;&gt;&#x9;&lt;/span&gt;&lt;span style=&quot;white-space: pre;&quot;&gt;&#x9;&lt;/span&gt;A11.B&lt;span style=&quot;white-space: pre;&quot;&gt;&#x9;&lt;/span&gt;&lt;span style=&quot;white-space: pre;&quot;&gt;&#x9;&lt;/span&gt;A10.B&lt;span style=&quot;white-space: pre;&quot;&gt;&#x9;&lt;/span&gt;&lt;span style=&quot;white-space: pre;&quot;&gt;&#x9;&lt;/span&gt;A9.B&lt;span style=&quot;white-space: pre;&quot;&gt;&#x9;&lt;/span&gt;&lt;span style=&quot;white-space: pre;&quot;&gt;&#x9;&lt;/span&gt;A8.B&lt;span style=&quot;white-space: pre;&quot;&gt;&#x9;&lt;/span&gt;&lt;span style=&quot;white-space: pre;&quot;&gt;&#x9;&lt;/span&gt;A7.B&lt;span style=&quot;white-space: pre;&quot;&gt;&#x9;&lt;/span&gt;&lt;span style=&quot;white-space: pre;&quot;&gt;&#x9;&lt;/span&gt;A6.B&lt;span style=&quot;white-space: pre;&quot;&gt;&#x9;&lt;/span&gt;&lt;span style=&quot;white-space: pre;&quot;&gt;&#x9;&lt;/span&gt;A5.B&lt;span style=&quot;white-space: pre;&quot;&gt;&#x9;&lt;/span&gt;&lt;span style=&quot;white-space: pre;&quot;&gt;&#x9;&lt;/span&gt;A4.B&lt;span style=&quot;white-space: pre;&quot;&gt;&#x9;&lt;/span&gt;&lt;span style=&quot;white-space: pre;&quot;&gt;&#x9;&lt;/span&gt;A3.B&lt;span style=&quot;white-space: pre;&quot;&gt;&#x9;&lt;/span&gt;&lt;span style=&quot;white-space: pre;&quot;&gt;&#x9;&lt;/span&gt;A2.B&lt;span style=&quot;white-space: pre;&quot;&gt;&#x9;&lt;/span&gt;&lt;span style=&quot;white-space: pre;&quot;&gt;&#x9;&lt;/span&gt;A1.B&lt;span style=&quot;white-space: pre;&quot;&gt;&#x9;&lt;/span&gt;&lt;span style=&quot;white-space: pre;&quot;&gt;&#x9;&lt;/span&gt;A0.B" style="text;html=1;align=center;verticalAlign=middle;resizable=0;points=[];autosize=1;strokeColor=none;fillColor=none;" vertex="1" parent="1">
          <mxGeometry x="3206" y="922" width="1170" height="30" as="geometry" />
        </mxCell>
        <mxCell id="vBjkKqUcBOy8eqSLdtir-240" value="&lt;u&gt;A14.B&lt;/u&gt;&lt;span style=&quot;white-space: pre;&quot;&gt;&#x9;&lt;/span&gt;&lt;span style=&quot;white-space: pre;&quot;&gt;&#x9;&lt;/span&gt;A13.B&lt;span style=&quot;white-space: pre;&quot;&gt;&#x9;&lt;/span&gt;&lt;span style=&quot;white-space: pre;&quot;&gt;&#x9;&lt;/span&gt;A12.B&lt;span style=&quot;white-space: pre;&quot;&gt;&#x9;&lt;/span&gt;&lt;span style=&quot;white-space: pre;&quot;&gt;&#x9;&lt;/span&gt;A11.B&lt;span style=&quot;white-space: pre;&quot;&gt;&#x9;&lt;/span&gt;&lt;span style=&quot;white-space: pre;&quot;&gt;&#x9;&lt;/span&gt;A10.B&lt;span style=&quot;white-space: pre;&quot;&gt;&#x9;&lt;/span&gt;&lt;span style=&quot;white-space: pre;&quot;&gt;&#x9;&lt;/span&gt;A9.B&lt;span style=&quot;white-space: pre;&quot;&gt;&#x9;&lt;/span&gt;&lt;span style=&quot;white-space: pre;&quot;&gt;&#x9;&lt;/span&gt;A8.B&lt;span style=&quot;white-space: pre;&quot;&gt;&#x9;&lt;/span&gt;&lt;span style=&quot;white-space: pre;&quot;&gt;&#x9;&lt;/span&gt;A7.B&lt;span style=&quot;white-space: pre;&quot;&gt;&#x9;&lt;/span&gt;&lt;span style=&quot;white-space: pre;&quot;&gt;&#x9;&lt;/span&gt;A6.B&lt;span style=&quot;white-space: pre;&quot;&gt;&#x9;&lt;/span&gt;&lt;span style=&quot;white-space: pre;&quot;&gt;&#x9;&lt;/span&gt;A5.B&lt;span style=&quot;white-space: pre;&quot;&gt;&#x9;&lt;/span&gt;&lt;span style=&quot;white-space: pre;&quot;&gt;&#x9;&lt;/span&gt;A4.B&lt;span style=&quot;white-space: pre;&quot;&gt;&#x9;&lt;/span&gt;&lt;span style=&quot;white-space: pre;&quot;&gt;&#x9;&lt;/span&gt;A3.B&lt;span style=&quot;white-space: pre;&quot;&gt;&#x9;&lt;/span&gt;&lt;span style=&quot;white-space: pre;&quot;&gt;&#x9;&lt;/span&gt;A2.B&lt;span style=&quot;white-space: pre;&quot;&gt;&#x9;&lt;/span&gt;&lt;span style=&quot;white-space: pre;&quot;&gt;&#x9;&lt;/span&gt;A1.B&lt;span style=&quot;white-space: pre;&quot;&gt;&#x9;&lt;/span&gt;&lt;span style=&quot;white-space: pre;&quot;&gt;&#x9;&lt;/span&gt;A0.B" style="text;html=1;align=center;verticalAlign=middle;resizable=0;points=[];autosize=1;strokeColor=none;fillColor=none;" vertex="1" parent="1">
          <mxGeometry x="3126" y="962" width="1170" height="30" as="geometry" />
        </mxCell>
        <mxCell id="vBjkKqUcBOy8eqSLdtir-241" value="&lt;u&gt;A14.B&lt;/u&gt;&lt;span style=&quot;white-space: pre;&quot;&gt;&#x9;&lt;/span&gt;&lt;span style=&quot;white-space: pre;&quot;&gt;&#x9;&lt;/span&gt;A13.B&lt;span style=&quot;white-space: pre;&quot;&gt;&#x9;&lt;/span&gt;&lt;span style=&quot;white-space: pre;&quot;&gt;&#x9;&lt;/span&gt;A12.B&lt;span style=&quot;white-space: pre;&quot;&gt;&#x9;&lt;/span&gt;&lt;span style=&quot;white-space: pre;&quot;&gt;&#x9;&lt;/span&gt;A11.B&lt;span style=&quot;white-space: pre;&quot;&gt;&#x9;&lt;/span&gt;&lt;span style=&quot;white-space: pre;&quot;&gt;&#x9;&lt;/span&gt;A10.B&lt;span style=&quot;white-space: pre;&quot;&gt;&#x9;&lt;/span&gt;&lt;span style=&quot;white-space: pre;&quot;&gt;&#x9;&lt;/span&gt;A9.B&lt;span style=&quot;white-space: pre;&quot;&gt;&#x9;&lt;/span&gt;&lt;span style=&quot;white-space: pre;&quot;&gt;&#x9;&lt;/span&gt;A8.B&lt;span style=&quot;white-space: pre;&quot;&gt;&#x9;&lt;/span&gt;&lt;span style=&quot;white-space: pre;&quot;&gt;&#x9;&lt;/span&gt;A7.B&lt;span style=&quot;white-space: pre;&quot;&gt;&#x9;&lt;/span&gt;&lt;span style=&quot;white-space: pre;&quot;&gt;&#x9;&lt;/span&gt;A6.B&lt;span style=&quot;white-space: pre;&quot;&gt;&#x9;&lt;/span&gt;&lt;span style=&quot;white-space: pre;&quot;&gt;&#x9;&lt;/span&gt;A5.B&lt;span style=&quot;white-space: pre;&quot;&gt;&#x9;&lt;/span&gt;&lt;span style=&quot;white-space: pre;&quot;&gt;&#x9;&lt;/span&gt;A4.B&lt;span style=&quot;white-space: pre;&quot;&gt;&#x9;&lt;/span&gt;&lt;span style=&quot;white-space: pre;&quot;&gt;&#x9;&lt;/span&gt;A3.B&lt;span style=&quot;white-space: pre;&quot;&gt;&#x9;&lt;/span&gt;&lt;span style=&quot;white-space: pre;&quot;&gt;&#x9;&lt;/span&gt;A2.B&lt;span style=&quot;white-space: pre;&quot;&gt;&#x9;&lt;/span&gt;&lt;span style=&quot;white-space: pre;&quot;&gt;&#x9;&lt;/span&gt;A1.B&lt;span style=&quot;white-space: pre;&quot;&gt;&#x9;&lt;/span&gt;&lt;span style=&quot;white-space: pre;&quot;&gt;&#x9;&lt;/span&gt;A0.B" style="text;html=1;align=center;verticalAlign=middle;resizable=0;points=[];autosize=1;strokeColor=none;fillColor=none;" vertex="1" parent="1">
          <mxGeometry x="3046" y="1002" width="1170" height="30" as="geometry" />
        </mxCell>
        <mxCell id="vBjkKqUcBOy8eqSLdtir-242" value="&lt;u&gt;A14.B&lt;/u&gt;&lt;span style=&quot;white-space: pre;&quot;&gt;&#x9;&lt;/span&gt;&lt;span style=&quot;white-space: pre;&quot;&gt;&#x9;&lt;/span&gt;A13.B&lt;span style=&quot;white-space: pre;&quot;&gt;&#x9;&lt;/span&gt;&lt;span style=&quot;white-space: pre;&quot;&gt;&#x9;&lt;/span&gt;A12.B&lt;span style=&quot;white-space: pre;&quot;&gt;&#x9;&lt;/span&gt;&lt;span style=&quot;white-space: pre;&quot;&gt;&#x9;&lt;/span&gt;A11.B&lt;span style=&quot;white-space: pre;&quot;&gt;&#x9;&lt;/span&gt;&lt;span style=&quot;white-space: pre;&quot;&gt;&#x9;&lt;/span&gt;A10.B&lt;span style=&quot;white-space: pre;&quot;&gt;&#x9;&lt;/span&gt;&lt;span style=&quot;white-space: pre;&quot;&gt;&#x9;&lt;/span&gt;A9.B&lt;span style=&quot;white-space: pre;&quot;&gt;&#x9;&lt;/span&gt;&lt;span style=&quot;white-space: pre;&quot;&gt;&#x9;&lt;/span&gt;A8.B&lt;span style=&quot;white-space: pre;&quot;&gt;&#x9;&lt;/span&gt;&lt;span style=&quot;white-space: pre;&quot;&gt;&#x9;&lt;/span&gt;A7.B&lt;span style=&quot;white-space: pre;&quot;&gt;&#x9;&lt;/span&gt;&lt;span style=&quot;white-space: pre;&quot;&gt;&#x9;&lt;/span&gt;A6.B&lt;span style=&quot;white-space: pre;&quot;&gt;&#x9;&lt;/span&gt;&lt;span style=&quot;white-space: pre;&quot;&gt;&#x9;&lt;/span&gt;A5.B&lt;span style=&quot;white-space: pre;&quot;&gt;&#x9;&lt;/span&gt;&lt;span style=&quot;white-space: pre;&quot;&gt;&#x9;&lt;/span&gt;A4.B&lt;span style=&quot;white-space: pre;&quot;&gt;&#x9;&lt;/span&gt;&lt;span style=&quot;white-space: pre;&quot;&gt;&#x9;&lt;/span&gt;A3.B&lt;span style=&quot;white-space: pre;&quot;&gt;&#x9;&lt;/span&gt;&lt;span style=&quot;white-space: pre;&quot;&gt;&#x9;&lt;/span&gt;A2.B&lt;span style=&quot;white-space: pre;&quot;&gt;&#x9;&lt;/span&gt;&lt;span style=&quot;white-space: pre;&quot;&gt;&#x9;&lt;/span&gt;A1.B&lt;span style=&quot;white-space: pre;&quot;&gt;&#x9;&lt;/span&gt;&lt;span style=&quot;white-space: pre;&quot;&gt;&#x9;&lt;/span&gt;A0.B" style="text;html=1;align=center;verticalAlign=middle;resizable=0;points=[];autosize=1;strokeColor=none;fillColor=none;" vertex="1" parent="1">
          <mxGeometry x="2966" y="1040" width="1170" height="30" as="geometry" />
        </mxCell>
        <mxCell id="vBjkKqUcBOy8eqSLdtir-243" value="&lt;u&gt;A14.B&lt;/u&gt;&lt;span style=&quot;white-space: pre;&quot;&gt;&#x9;&lt;/span&gt;&lt;span style=&quot;white-space: pre;&quot;&gt;&#x9;&lt;/span&gt;A13.B&lt;span style=&quot;white-space: pre;&quot;&gt;&#x9;&lt;/span&gt;&lt;span style=&quot;white-space: pre;&quot;&gt;&#x9;&lt;/span&gt;A12.B&lt;span style=&quot;white-space: pre;&quot;&gt;&#x9;&lt;/span&gt;&lt;span style=&quot;white-space: pre;&quot;&gt;&#x9;&lt;/span&gt;A11.B&lt;span style=&quot;white-space: pre;&quot;&gt;&#x9;&lt;/span&gt;&lt;span style=&quot;white-space: pre;&quot;&gt;&#x9;&lt;/span&gt;A10.B&lt;span style=&quot;white-space: pre;&quot;&gt;&#x9;&lt;/span&gt;&lt;span style=&quot;white-space: pre;&quot;&gt;&#x9;&lt;/span&gt;A9.B&lt;span style=&quot;white-space: pre;&quot;&gt;&#x9;&lt;/span&gt;&lt;span style=&quot;white-space: pre;&quot;&gt;&#x9;&lt;/span&gt;A8.B&lt;span style=&quot;white-space: pre;&quot;&gt;&#x9;&lt;/span&gt;&lt;span style=&quot;white-space: pre;&quot;&gt;&#x9;&lt;/span&gt;A7.B&lt;span style=&quot;white-space: pre;&quot;&gt;&#x9;&lt;/span&gt;&lt;span style=&quot;white-space: pre;&quot;&gt;&#x9;&lt;/span&gt;A6.B&lt;span style=&quot;white-space: pre;&quot;&gt;&#x9;&lt;/span&gt;&lt;span style=&quot;white-space: pre;&quot;&gt;&#x9;&lt;/span&gt;A5.B&lt;span style=&quot;white-space: pre;&quot;&gt;&#x9;&lt;/span&gt;&lt;span style=&quot;white-space: pre;&quot;&gt;&#x9;&lt;/span&gt;A4.B&lt;span style=&quot;white-space: pre;&quot;&gt;&#x9;&lt;/span&gt;&lt;span style=&quot;white-space: pre;&quot;&gt;&#x9;&lt;/span&gt;A3.B&lt;span style=&quot;white-space: pre;&quot;&gt;&#x9;&lt;/span&gt;&lt;span style=&quot;white-space: pre;&quot;&gt;&#x9;&lt;/span&gt;A2.B&lt;span style=&quot;white-space: pre;&quot;&gt;&#x9;&lt;/span&gt;&lt;span style=&quot;white-space: pre;&quot;&gt;&#x9;&lt;/span&gt;A1.B&lt;span style=&quot;white-space: pre;&quot;&gt;&#x9;&lt;/span&gt;&lt;span style=&quot;white-space: pre;&quot;&gt;&#x9;&lt;/span&gt;A0.B" style="text;html=1;align=center;verticalAlign=middle;resizable=0;points=[];autosize=1;strokeColor=none;fillColor=none;" vertex="1" parent="1">
          <mxGeometry x="2636" y="1188" width="1170" height="30" as="geometry" />
        </mxCell>
        <mxCell id="vBjkKqUcBOy8eqSLdtir-244" value="&lt;u&gt;A14.B&lt;/u&gt;&lt;span style=&quot;white-space: pre;&quot;&gt;&#x9;&lt;/span&gt;&lt;span style=&quot;white-space: pre;&quot;&gt;&#x9;&lt;/span&gt;A13.B&lt;span style=&quot;white-space: pre;&quot;&gt;&#x9;&lt;/span&gt;&lt;span style=&quot;white-space: pre;&quot;&gt;&#x9;&lt;/span&gt;A12.B&lt;span style=&quot;white-space: pre;&quot;&gt;&#x9;&lt;/span&gt;&lt;span style=&quot;white-space: pre;&quot;&gt;&#x9;&lt;/span&gt;A11.B&lt;span style=&quot;white-space: pre;&quot;&gt;&#x9;&lt;/span&gt;&lt;span style=&quot;white-space: pre;&quot;&gt;&#x9;&lt;/span&gt;A10.B&lt;span style=&quot;white-space: pre;&quot;&gt;&#x9;&lt;/span&gt;&lt;span style=&quot;white-space: pre;&quot;&gt;&#x9;&lt;/span&gt;A9.B&lt;span style=&quot;white-space: pre;&quot;&gt;&#x9;&lt;/span&gt;&lt;span style=&quot;white-space: pre;&quot;&gt;&#x9;&lt;/span&gt;A8.B&lt;span style=&quot;white-space: pre;&quot;&gt;&#x9;&lt;/span&gt;&lt;span style=&quot;white-space: pre;&quot;&gt;&#x9;&lt;/span&gt;A7.B&lt;span style=&quot;white-space: pre;&quot;&gt;&#x9;&lt;/span&gt;&lt;span style=&quot;white-space: pre;&quot;&gt;&#x9;&lt;/span&gt;A6.B&lt;span style=&quot;white-space: pre;&quot;&gt;&#x9;&lt;/span&gt;&lt;span style=&quot;white-space: pre;&quot;&gt;&#x9;&lt;/span&gt;A5.B&lt;span style=&quot;white-space: pre;&quot;&gt;&#x9;&lt;/span&gt;&lt;span style=&quot;white-space: pre;&quot;&gt;&#x9;&lt;/span&gt;A4.B&lt;span style=&quot;white-space: pre;&quot;&gt;&#x9;&lt;/span&gt;&lt;span style=&quot;white-space: pre;&quot;&gt;&#x9;&lt;/span&gt;A3.B&lt;span style=&quot;white-space: pre;&quot;&gt;&#x9;&lt;/span&gt;&lt;span style=&quot;white-space: pre;&quot;&gt;&#x9;&lt;/span&gt;A2.B&lt;span style=&quot;white-space: pre;&quot;&gt;&#x9;&lt;/span&gt;&lt;span style=&quot;white-space: pre;&quot;&gt;&#x9;&lt;/span&gt;A1.B&lt;span style=&quot;white-space: pre;&quot;&gt;&#x9;&lt;/span&gt;&lt;span style=&quot;white-space: pre;&quot;&gt;&#x9;&lt;/span&gt;A0.B" style="text;html=1;align=center;verticalAlign=middle;resizable=0;points=[];autosize=1;strokeColor=none;fillColor=none;" vertex="1" parent="1">
          <mxGeometry x="2716" y="1150" width="1170" height="30" as="geometry" />
        </mxCell>
        <mxCell id="vBjkKqUcBOy8eqSLdtir-245" value="&lt;u&gt;A14.B&lt;/u&gt;&lt;span style=&quot;white-space: pre;&quot;&gt;&#x9;&lt;/span&gt;&lt;span style=&quot;white-space: pre;&quot;&gt;&#x9;&lt;/span&gt;A13.B&lt;span style=&quot;white-space: pre;&quot;&gt;&#x9;&lt;/span&gt;&lt;span style=&quot;white-space: pre;&quot;&gt;&#x9;&lt;/span&gt;A12.B&lt;span style=&quot;white-space: pre;&quot;&gt;&#x9;&lt;/span&gt;&lt;span style=&quot;white-space: pre;&quot;&gt;&#x9;&lt;/span&gt;A11.B&lt;span style=&quot;white-space: pre;&quot;&gt;&#x9;&lt;/span&gt;&lt;span style=&quot;white-space: pre;&quot;&gt;&#x9;&lt;/span&gt;A10.B&lt;span style=&quot;white-space: pre;&quot;&gt;&#x9;&lt;/span&gt;&lt;span style=&quot;white-space: pre;&quot;&gt;&#x9;&lt;/span&gt;A9.B&lt;span style=&quot;white-space: pre;&quot;&gt;&#x9;&lt;/span&gt;&lt;span style=&quot;white-space: pre;&quot;&gt;&#x9;&lt;/span&gt;A8.B&lt;span style=&quot;white-space: pre;&quot;&gt;&#x9;&lt;/span&gt;&lt;span style=&quot;white-space: pre;&quot;&gt;&#x9;&lt;/span&gt;A7.B&lt;span style=&quot;white-space: pre;&quot;&gt;&#x9;&lt;/span&gt;&lt;span style=&quot;white-space: pre;&quot;&gt;&#x9;&lt;/span&gt;A6.B&lt;span style=&quot;white-space: pre;&quot;&gt;&#x9;&lt;/span&gt;&lt;span style=&quot;white-space: pre;&quot;&gt;&#x9;&lt;/span&gt;A5.B&lt;span style=&quot;white-space: pre;&quot;&gt;&#x9;&lt;/span&gt;&lt;span style=&quot;white-space: pre;&quot;&gt;&#x9;&lt;/span&gt;A4.B&lt;span style=&quot;white-space: pre;&quot;&gt;&#x9;&lt;/span&gt;&lt;span style=&quot;white-space: pre;&quot;&gt;&#x9;&lt;/span&gt;A3.B&lt;span style=&quot;white-space: pre;&quot;&gt;&#x9;&lt;/span&gt;&lt;span style=&quot;white-space: pre;&quot;&gt;&#x9;&lt;/span&gt;A2.B&lt;span style=&quot;white-space: pre;&quot;&gt;&#x9;&lt;/span&gt;&lt;span style=&quot;white-space: pre;&quot;&gt;&#x9;&lt;/span&gt;A1.B&lt;span style=&quot;white-space: pre;&quot;&gt;&#x9;&lt;/span&gt;&lt;span style=&quot;white-space: pre;&quot;&gt;&#x9;&lt;/span&gt;A0.B" style="text;html=1;align=center;verticalAlign=middle;resizable=0;points=[];autosize=1;strokeColor=none;fillColor=none;" vertex="1" parent="1">
          <mxGeometry x="2796" y="1110" width="1170" height="30" as="geometry" />
        </mxCell>
        <mxCell id="vBjkKqUcBOy8eqSLdtir-246" value="&lt;u&gt;A14.B&lt;/u&gt;&lt;span style=&quot;white-space: pre;&quot;&gt;&#x9;&lt;/span&gt;&lt;span style=&quot;white-space: pre;&quot;&gt;&#x9;&lt;/span&gt;A13.B&lt;span style=&quot;white-space: pre;&quot;&gt;&#x9;&lt;/span&gt;&lt;span style=&quot;white-space: pre;&quot;&gt;&#x9;&lt;/span&gt;A12.B&lt;span style=&quot;white-space: pre;&quot;&gt;&#x9;&lt;/span&gt;&lt;span style=&quot;white-space: pre;&quot;&gt;&#x9;&lt;/span&gt;A11.B&lt;span style=&quot;white-space: pre;&quot;&gt;&#x9;&lt;/span&gt;&lt;span style=&quot;white-space: pre;&quot;&gt;&#x9;&lt;/span&gt;A10.B&lt;span style=&quot;white-space: pre;&quot;&gt;&#x9;&lt;/span&gt;&lt;span style=&quot;white-space: pre;&quot;&gt;&#x9;&lt;/span&gt;A9.B&lt;span style=&quot;white-space: pre;&quot;&gt;&#x9;&lt;/span&gt;&lt;span style=&quot;white-space: pre;&quot;&gt;&#x9;&lt;/span&gt;A8.B&lt;span style=&quot;white-space: pre;&quot;&gt;&#x9;&lt;/span&gt;&lt;span style=&quot;white-space: pre;&quot;&gt;&#x9;&lt;/span&gt;A7.B&lt;span style=&quot;white-space: pre;&quot;&gt;&#x9;&lt;/span&gt;&lt;span style=&quot;white-space: pre;&quot;&gt;&#x9;&lt;/span&gt;A6.B&lt;span style=&quot;white-space: pre;&quot;&gt;&#x9;&lt;/span&gt;&lt;span style=&quot;white-space: pre;&quot;&gt;&#x9;&lt;/span&gt;A5.B&lt;span style=&quot;white-space: pre;&quot;&gt;&#x9;&lt;/span&gt;&lt;span style=&quot;white-space: pre;&quot;&gt;&#x9;&lt;/span&gt;A4.B&lt;span style=&quot;white-space: pre;&quot;&gt;&#x9;&lt;/span&gt;&lt;span style=&quot;white-space: pre;&quot;&gt;&#x9;&lt;/span&gt;A3.B&lt;span style=&quot;white-space: pre;&quot;&gt;&#x9;&lt;/span&gt;&lt;span style=&quot;white-space: pre;&quot;&gt;&#x9;&lt;/span&gt;A2.B&lt;span style=&quot;white-space: pre;&quot;&gt;&#x9;&lt;/span&gt;&lt;span style=&quot;white-space: pre;&quot;&gt;&#x9;&lt;/span&gt;A1.B&lt;span style=&quot;white-space: pre;&quot;&gt;&#x9;&lt;/span&gt;&lt;span style=&quot;white-space: pre;&quot;&gt;&#x9;&lt;/span&gt;A0.B" style="text;html=1;align=center;verticalAlign=middle;resizable=0;points=[];autosize=1;strokeColor=none;fillColor=none;" vertex="1" parent="1">
          <mxGeometry x="2876" y="1070" width="1170" height="30" as="geometry" />
        </mxCell>
        <mxCell id="vBjkKqUcBOy8eqSLdtir-247" value="&lt;u&gt;A14.B&lt;/u&gt;&lt;span style=&quot;white-space: pre;&quot;&gt;&#x9;&lt;/span&gt;&lt;span style=&quot;white-space: pre;&quot;&gt;&#x9;&lt;/span&gt;A13.B&lt;span style=&quot;white-space: pre;&quot;&gt;&#x9;&lt;/span&gt;&lt;span style=&quot;white-space: pre;&quot;&gt;&#x9;&lt;/span&gt;A12.B&lt;span style=&quot;white-space: pre;&quot;&gt;&#x9;&lt;/span&gt;&lt;span style=&quot;white-space: pre;&quot;&gt;&#x9;&lt;/span&gt;A11.B&lt;span style=&quot;white-space: pre;&quot;&gt;&#x9;&lt;/span&gt;&lt;span style=&quot;white-space: pre;&quot;&gt;&#x9;&lt;/span&gt;A10.B&lt;span style=&quot;white-space: pre;&quot;&gt;&#x9;&lt;/span&gt;&lt;span style=&quot;white-space: pre;&quot;&gt;&#x9;&lt;/span&gt;A9.B&lt;span style=&quot;white-space: pre;&quot;&gt;&#x9;&lt;/span&gt;&lt;span style=&quot;white-space: pre;&quot;&gt;&#x9;&lt;/span&gt;A8.B&lt;span style=&quot;white-space: pre;&quot;&gt;&#x9;&lt;/span&gt;&lt;span style=&quot;white-space: pre;&quot;&gt;&#x9;&lt;/span&gt;A7.B&lt;span style=&quot;white-space: pre;&quot;&gt;&#x9;&lt;/span&gt;&lt;span style=&quot;white-space: pre;&quot;&gt;&#x9;&lt;/span&gt;A6.B&lt;span style=&quot;white-space: pre;&quot;&gt;&#x9;&lt;/span&gt;&lt;span style=&quot;white-space: pre;&quot;&gt;&#x9;&lt;/span&gt;A5.B&lt;span style=&quot;white-space: pre;&quot;&gt;&#x9;&lt;/span&gt;&lt;span style=&quot;white-space: pre;&quot;&gt;&#x9;&lt;/span&gt;A4.B&lt;span style=&quot;white-space: pre;&quot;&gt;&#x9;&lt;/span&gt;&lt;span style=&quot;white-space: pre;&quot;&gt;&#x9;&lt;/span&gt;A3.B&lt;span style=&quot;white-space: pre;&quot;&gt;&#x9;&lt;/span&gt;&lt;span style=&quot;white-space: pre;&quot;&gt;&#x9;&lt;/span&gt;A2.B&lt;span style=&quot;white-space: pre;&quot;&gt;&#x9;&lt;/span&gt;&lt;span style=&quot;white-space: pre;&quot;&gt;&#x9;&lt;/span&gt;A1.B&lt;span style=&quot;white-space: pre;&quot;&gt;&#x9;&lt;/span&gt;&lt;span style=&quot;white-space: pre;&quot;&gt;&#x9;&lt;/span&gt;A0.B" style="text;html=1;align=center;verticalAlign=middle;resizable=0;points=[];autosize=1;strokeColor=none;fillColor=none;" vertex="1" parent="1">
          <mxGeometry x="2307" y="1336" width="1170" height="30" as="geometry" />
        </mxCell>
        <mxCell id="vBjkKqUcBOy8eqSLdtir-248" value="&lt;u&gt;A14.B&lt;/u&gt;&lt;span style=&quot;white-space: pre;&quot;&gt;&#x9;&lt;/span&gt;&lt;span style=&quot;white-space: pre;&quot;&gt;&#x9;&lt;/span&gt;A13.B&lt;span style=&quot;white-space: pre;&quot;&gt;&#x9;&lt;/span&gt;&lt;span style=&quot;white-space: pre;&quot;&gt;&#x9;&lt;/span&gt;A12.B&lt;span style=&quot;white-space: pre;&quot;&gt;&#x9;&lt;/span&gt;&lt;span style=&quot;white-space: pre;&quot;&gt;&#x9;&lt;/span&gt;A11.B&lt;span style=&quot;white-space: pre;&quot;&gt;&#x9;&lt;/span&gt;&lt;span style=&quot;white-space: pre;&quot;&gt;&#x9;&lt;/span&gt;A10.B&lt;span style=&quot;white-space: pre;&quot;&gt;&#x9;&lt;/span&gt;&lt;span style=&quot;white-space: pre;&quot;&gt;&#x9;&lt;/span&gt;A9.B&lt;span style=&quot;white-space: pre;&quot;&gt;&#x9;&lt;/span&gt;&lt;span style=&quot;white-space: pre;&quot;&gt;&#x9;&lt;/span&gt;A8.B&lt;span style=&quot;white-space: pre;&quot;&gt;&#x9;&lt;/span&gt;&lt;span style=&quot;white-space: pre;&quot;&gt;&#x9;&lt;/span&gt;A7.B&lt;span style=&quot;white-space: pre;&quot;&gt;&#x9;&lt;/span&gt;&lt;span style=&quot;white-space: pre;&quot;&gt;&#x9;&lt;/span&gt;A6.B&lt;span style=&quot;white-space: pre;&quot;&gt;&#x9;&lt;/span&gt;&lt;span style=&quot;white-space: pre;&quot;&gt;&#x9;&lt;/span&gt;A5.B&lt;span style=&quot;white-space: pre;&quot;&gt;&#x9;&lt;/span&gt;&lt;span style=&quot;white-space: pre;&quot;&gt;&#x9;&lt;/span&gt;A4.B&lt;span style=&quot;white-space: pre;&quot;&gt;&#x9;&lt;/span&gt;&lt;span style=&quot;white-space: pre;&quot;&gt;&#x9;&lt;/span&gt;A3.B&lt;span style=&quot;white-space: pre;&quot;&gt;&#x9;&lt;/span&gt;&lt;span style=&quot;white-space: pre;&quot;&gt;&#x9;&lt;/span&gt;A2.B&lt;span style=&quot;white-space: pre;&quot;&gt;&#x9;&lt;/span&gt;&lt;span style=&quot;white-space: pre;&quot;&gt;&#x9;&lt;/span&gt;A1.B&lt;span style=&quot;white-space: pre;&quot;&gt;&#x9;&lt;/span&gt;&lt;span style=&quot;white-space: pre;&quot;&gt;&#x9;&lt;/span&gt;A0.B" style="text;html=1;align=center;verticalAlign=middle;resizable=0;points=[];autosize=1;strokeColor=none;fillColor=none;" vertex="1" parent="1">
          <mxGeometry x="2387" y="1298" width="1170" height="30" as="geometry" />
        </mxCell>
        <mxCell id="vBjkKqUcBOy8eqSLdtir-249" value="&lt;u&gt;A14.B&lt;/u&gt;&lt;span style=&quot;white-space: pre;&quot;&gt;&#x9;&lt;/span&gt;&lt;span style=&quot;white-space: pre;&quot;&gt;&#x9;&lt;/span&gt;A13.B&lt;span style=&quot;white-space: pre;&quot;&gt;&#x9;&lt;/span&gt;&lt;span style=&quot;white-space: pre;&quot;&gt;&#x9;&lt;/span&gt;A12.B&lt;span style=&quot;white-space: pre;&quot;&gt;&#x9;&lt;/span&gt;&lt;span style=&quot;white-space: pre;&quot;&gt;&#x9;&lt;/span&gt;A11.B&lt;span style=&quot;white-space: pre;&quot;&gt;&#x9;&lt;/span&gt;&lt;span style=&quot;white-space: pre;&quot;&gt;&#x9;&lt;/span&gt;A10.B&lt;span style=&quot;white-space: pre;&quot;&gt;&#x9;&lt;/span&gt;&lt;span style=&quot;white-space: pre;&quot;&gt;&#x9;&lt;/span&gt;A9.B&lt;span style=&quot;white-space: pre;&quot;&gt;&#x9;&lt;/span&gt;&lt;span style=&quot;white-space: pre;&quot;&gt;&#x9;&lt;/span&gt;A8.B&lt;span style=&quot;white-space: pre;&quot;&gt;&#x9;&lt;/span&gt;&lt;span style=&quot;white-space: pre;&quot;&gt;&#x9;&lt;/span&gt;A7.B&lt;span style=&quot;white-space: pre;&quot;&gt;&#x9;&lt;/span&gt;&lt;span style=&quot;white-space: pre;&quot;&gt;&#x9;&lt;/span&gt;A6.B&lt;span style=&quot;white-space: pre;&quot;&gt;&#x9;&lt;/span&gt;&lt;span style=&quot;white-space: pre;&quot;&gt;&#x9;&lt;/span&gt;A5.B&lt;span style=&quot;white-space: pre;&quot;&gt;&#x9;&lt;/span&gt;&lt;span style=&quot;white-space: pre;&quot;&gt;&#x9;&lt;/span&gt;A4.B&lt;span style=&quot;white-space: pre;&quot;&gt;&#x9;&lt;/span&gt;&lt;span style=&quot;white-space: pre;&quot;&gt;&#x9;&lt;/span&gt;A3.B&lt;span style=&quot;white-space: pre;&quot;&gt;&#x9;&lt;/span&gt;&lt;span style=&quot;white-space: pre;&quot;&gt;&#x9;&lt;/span&gt;A2.B&lt;span style=&quot;white-space: pre;&quot;&gt;&#x9;&lt;/span&gt;&lt;span style=&quot;white-space: pre;&quot;&gt;&#x9;&lt;/span&gt;A1.B&lt;span style=&quot;white-space: pre;&quot;&gt;&#x9;&lt;/span&gt;&lt;span style=&quot;white-space: pre;&quot;&gt;&#x9;&lt;/span&gt;A0.B" style="text;html=1;align=center;verticalAlign=middle;resizable=0;points=[];autosize=1;strokeColor=none;fillColor=none;" vertex="1" parent="1">
          <mxGeometry x="2467" y="1258" width="1170" height="30" as="geometry" />
        </mxCell>
        <mxCell id="vBjkKqUcBOy8eqSLdtir-250" value="&lt;u&gt;A14.B&lt;/u&gt;&lt;span style=&quot;white-space: pre;&quot;&gt;&#x9;&lt;/span&gt;&lt;span style=&quot;white-space: pre;&quot;&gt;&#x9;&lt;/span&gt;A13.B&lt;span style=&quot;white-space: pre;&quot;&gt;&#x9;&lt;/span&gt;&lt;span style=&quot;white-space: pre;&quot;&gt;&#x9;&lt;/span&gt;A12.B&lt;span style=&quot;white-space: pre;&quot;&gt;&#x9;&lt;/span&gt;&lt;span style=&quot;white-space: pre;&quot;&gt;&#x9;&lt;/span&gt;A11.B&lt;span style=&quot;white-space: pre;&quot;&gt;&#x9;&lt;/span&gt;&lt;span style=&quot;white-space: pre;&quot;&gt;&#x9;&lt;/span&gt;A10.B&lt;span style=&quot;white-space: pre;&quot;&gt;&#x9;&lt;/span&gt;&lt;span style=&quot;white-space: pre;&quot;&gt;&#x9;&lt;/span&gt;A9.B&lt;span style=&quot;white-space: pre;&quot;&gt;&#x9;&lt;/span&gt;&lt;span style=&quot;white-space: pre;&quot;&gt;&#x9;&lt;/span&gt;A8.B&lt;span style=&quot;white-space: pre;&quot;&gt;&#x9;&lt;/span&gt;&lt;span style=&quot;white-space: pre;&quot;&gt;&#x9;&lt;/span&gt;A7.B&lt;span style=&quot;white-space: pre;&quot;&gt;&#x9;&lt;/span&gt;&lt;span style=&quot;white-space: pre;&quot;&gt;&#x9;&lt;/span&gt;A6.B&lt;span style=&quot;white-space: pre;&quot;&gt;&#x9;&lt;/span&gt;&lt;span style=&quot;white-space: pre;&quot;&gt;&#x9;&lt;/span&gt;A5.B&lt;span style=&quot;white-space: pre;&quot;&gt;&#x9;&lt;/span&gt;&lt;span style=&quot;white-space: pre;&quot;&gt;&#x9;&lt;/span&gt;A4.B&lt;span style=&quot;white-space: pre;&quot;&gt;&#x9;&lt;/span&gt;&lt;span style=&quot;white-space: pre;&quot;&gt;&#x9;&lt;/span&gt;A3.B&lt;span style=&quot;white-space: pre;&quot;&gt;&#x9;&lt;/span&gt;&lt;span style=&quot;white-space: pre;&quot;&gt;&#x9;&lt;/span&gt;A2.B&lt;span style=&quot;white-space: pre;&quot;&gt;&#x9;&lt;/span&gt;&lt;span style=&quot;white-space: pre;&quot;&gt;&#x9;&lt;/span&gt;A1.B&lt;span style=&quot;white-space: pre;&quot;&gt;&#x9;&lt;/span&gt;&lt;span style=&quot;white-space: pre;&quot;&gt;&#x9;&lt;/span&gt;A0.B" style="text;html=1;align=center;verticalAlign=middle;resizable=0;points=[];autosize=1;strokeColor=none;fillColor=none;" vertex="1" parent="1">
          <mxGeometry x="2547" y="1218" width="1170" height="30" as="geometry" />
        </mxCell>
        <mxCell id="vBjkKqUcBOy8eqSLdtir-251" value="&lt;u&gt;A14.B&lt;/u&gt;&lt;span style=&quot;white-space: pre;&quot;&gt;&#x9;&lt;/span&gt;&lt;span style=&quot;white-space: pre;&quot;&gt;&#x9;&lt;/span&gt;A13.B&lt;span style=&quot;white-space: pre;&quot;&gt;&#x9;&lt;/span&gt;&lt;span style=&quot;white-space: pre;&quot;&gt;&#x9;&lt;/span&gt;A12.B&lt;span style=&quot;white-space: pre;&quot;&gt;&#x9;&lt;/span&gt;&lt;span style=&quot;white-space: pre;&quot;&gt;&#x9;&lt;/span&gt;A11.B&lt;span style=&quot;white-space: pre;&quot;&gt;&#x9;&lt;/span&gt;&lt;span style=&quot;white-space: pre;&quot;&gt;&#x9;&lt;/span&gt;A10.B&lt;span style=&quot;white-space: pre;&quot;&gt;&#x9;&lt;/span&gt;&lt;span style=&quot;white-space: pre;&quot;&gt;&#x9;&lt;/span&gt;A9.B&lt;span style=&quot;white-space: pre;&quot;&gt;&#x9;&lt;/span&gt;&lt;span style=&quot;white-space: pre;&quot;&gt;&#x9;&lt;/span&gt;A8.B&lt;span style=&quot;white-space: pre;&quot;&gt;&#x9;&lt;/span&gt;&lt;span style=&quot;white-space: pre;&quot;&gt;&#x9;&lt;/span&gt;A7.B&lt;span style=&quot;white-space: pre;&quot;&gt;&#x9;&lt;/span&gt;&lt;span style=&quot;white-space: pre;&quot;&gt;&#x9;&lt;/span&gt;A6.B&lt;span style=&quot;white-space: pre;&quot;&gt;&#x9;&lt;/span&gt;&lt;span style=&quot;white-space: pre;&quot;&gt;&#x9;&lt;/span&gt;A5.B&lt;span style=&quot;white-space: pre;&quot;&gt;&#x9;&lt;/span&gt;&lt;span style=&quot;white-space: pre;&quot;&gt;&#x9;&lt;/span&gt;A4.B&lt;span style=&quot;white-space: pre;&quot;&gt;&#x9;&lt;/span&gt;&lt;span style=&quot;white-space: pre;&quot;&gt;&#x9;&lt;/span&gt;A3.B&lt;span style=&quot;white-space: pre;&quot;&gt;&#x9;&lt;/span&gt;&lt;span style=&quot;white-space: pre;&quot;&gt;&#x9;&lt;/span&gt;A2.B&lt;span style=&quot;white-space: pre;&quot;&gt;&#x9;&lt;/span&gt;&lt;span style=&quot;white-space: pre;&quot;&gt;&#x9;&lt;/span&gt;A1.B&lt;span style=&quot;white-space: pre;&quot;&gt;&#x9;&lt;/span&gt;&lt;span style=&quot;white-space: pre;&quot;&gt;&#x9;&lt;/span&gt;A0.B" style="text;html=1;align=center;verticalAlign=middle;resizable=0;points=[];autosize=1;strokeColor=none;fillColor=none;" vertex="1" parent="1">
          <mxGeometry x="1990" y="1484" width="1170" height="30" as="geometry" />
        </mxCell>
        <mxCell id="vBjkKqUcBOy8eqSLdtir-252" value="&lt;u&gt;A14.B&lt;/u&gt;&lt;span style=&quot;white-space: pre;&quot;&gt;&#x9;&lt;/span&gt;&lt;span style=&quot;white-space: pre;&quot;&gt;&#x9;&lt;/span&gt;A13.B&lt;span style=&quot;white-space: pre;&quot;&gt;&#x9;&lt;/span&gt;&lt;span style=&quot;white-space: pre;&quot;&gt;&#x9;&lt;/span&gt;A12.B&lt;span style=&quot;white-space: pre;&quot;&gt;&#x9;&lt;/span&gt;&lt;span style=&quot;white-space: pre;&quot;&gt;&#x9;&lt;/span&gt;A11.B&lt;span style=&quot;white-space: pre;&quot;&gt;&#x9;&lt;/span&gt;&lt;span style=&quot;white-space: pre;&quot;&gt;&#x9;&lt;/span&gt;A10.B&lt;span style=&quot;white-space: pre;&quot;&gt;&#x9;&lt;/span&gt;&lt;span style=&quot;white-space: pre;&quot;&gt;&#x9;&lt;/span&gt;A9.B&lt;span style=&quot;white-space: pre;&quot;&gt;&#x9;&lt;/span&gt;&lt;span style=&quot;white-space: pre;&quot;&gt;&#x9;&lt;/span&gt;A8.B&lt;span style=&quot;white-space: pre;&quot;&gt;&#x9;&lt;/span&gt;&lt;span style=&quot;white-space: pre;&quot;&gt;&#x9;&lt;/span&gt;A7.B&lt;span style=&quot;white-space: pre;&quot;&gt;&#x9;&lt;/span&gt;&lt;span style=&quot;white-space: pre;&quot;&gt;&#x9;&lt;/span&gt;A6.B&lt;span style=&quot;white-space: pre;&quot;&gt;&#x9;&lt;/span&gt;&lt;span style=&quot;white-space: pre;&quot;&gt;&#x9;&lt;/span&gt;A5.B&lt;span style=&quot;white-space: pre;&quot;&gt;&#x9;&lt;/span&gt;&lt;span style=&quot;white-space: pre;&quot;&gt;&#x9;&lt;/span&gt;A4.B&lt;span style=&quot;white-space: pre;&quot;&gt;&#x9;&lt;/span&gt;&lt;span style=&quot;white-space: pre;&quot;&gt;&#x9;&lt;/span&gt;A3.B&lt;span style=&quot;white-space: pre;&quot;&gt;&#x9;&lt;/span&gt;&lt;span style=&quot;white-space: pre;&quot;&gt;&#x9;&lt;/span&gt;A2.B&lt;span style=&quot;white-space: pre;&quot;&gt;&#x9;&lt;/span&gt;&lt;span style=&quot;white-space: pre;&quot;&gt;&#x9;&lt;/span&gt;A1.B&lt;span style=&quot;white-space: pre;&quot;&gt;&#x9;&lt;/span&gt;&lt;span style=&quot;white-space: pre;&quot;&gt;&#x9;&lt;/span&gt;A0.B" style="text;html=1;align=center;verticalAlign=middle;resizable=0;points=[];autosize=1;strokeColor=none;fillColor=none;" vertex="1" parent="1">
          <mxGeometry x="2070" y="1446" width="1170" height="30" as="geometry" />
        </mxCell>
        <mxCell id="vBjkKqUcBOy8eqSLdtir-253" value="&lt;u&gt;A14.B&lt;/u&gt;&lt;span style=&quot;white-space: pre;&quot;&gt;&#x9;&lt;/span&gt;&lt;span style=&quot;white-space: pre;&quot;&gt;&#x9;&lt;/span&gt;A13.B&lt;span style=&quot;white-space: pre;&quot;&gt;&#x9;&lt;/span&gt;&lt;span style=&quot;white-space: pre;&quot;&gt;&#x9;&lt;/span&gt;A12.B&lt;span style=&quot;white-space: pre;&quot;&gt;&#x9;&lt;/span&gt;&lt;span style=&quot;white-space: pre;&quot;&gt;&#x9;&lt;/span&gt;A11.B&lt;span style=&quot;white-space: pre;&quot;&gt;&#x9;&lt;/span&gt;&lt;span style=&quot;white-space: pre;&quot;&gt;&#x9;&lt;/span&gt;A10.B&lt;span style=&quot;white-space: pre;&quot;&gt;&#x9;&lt;/span&gt;&lt;span style=&quot;white-space: pre;&quot;&gt;&#x9;&lt;/span&gt;A9.B&lt;span style=&quot;white-space: pre;&quot;&gt;&#x9;&lt;/span&gt;&lt;span style=&quot;white-space: pre;&quot;&gt;&#x9;&lt;/span&gt;A8.B&lt;span style=&quot;white-space: pre;&quot;&gt;&#x9;&lt;/span&gt;&lt;span style=&quot;white-space: pre;&quot;&gt;&#x9;&lt;/span&gt;A7.B&lt;span style=&quot;white-space: pre;&quot;&gt;&#x9;&lt;/span&gt;&lt;span style=&quot;white-space: pre;&quot;&gt;&#x9;&lt;/span&gt;A6.B&lt;span style=&quot;white-space: pre;&quot;&gt;&#x9;&lt;/span&gt;&lt;span style=&quot;white-space: pre;&quot;&gt;&#x9;&lt;/span&gt;A5.B&lt;span style=&quot;white-space: pre;&quot;&gt;&#x9;&lt;/span&gt;&lt;span style=&quot;white-space: pre;&quot;&gt;&#x9;&lt;/span&gt;A4.B&lt;span style=&quot;white-space: pre;&quot;&gt;&#x9;&lt;/span&gt;&lt;span style=&quot;white-space: pre;&quot;&gt;&#x9;&lt;/span&gt;A3.B&lt;span style=&quot;white-space: pre;&quot;&gt;&#x9;&lt;/span&gt;&lt;span style=&quot;white-space: pre;&quot;&gt;&#x9;&lt;/span&gt;A2.B&lt;span style=&quot;white-space: pre;&quot;&gt;&#x9;&lt;/span&gt;&lt;span style=&quot;white-space: pre;&quot;&gt;&#x9;&lt;/span&gt;A1.B&lt;span style=&quot;white-space: pre;&quot;&gt;&#x9;&lt;/span&gt;&lt;span style=&quot;white-space: pre;&quot;&gt;&#x9;&lt;/span&gt;A0.B" style="text;html=1;align=center;verticalAlign=middle;resizable=0;points=[];autosize=1;strokeColor=none;fillColor=none;" vertex="1" parent="1">
          <mxGeometry x="2150" y="1406" width="1170" height="30" as="geometry" />
        </mxCell>
        <mxCell id="vBjkKqUcBOy8eqSLdtir-254" value="&lt;u&gt;A14.B&lt;/u&gt;&lt;span style=&quot;white-space: pre;&quot;&gt;&#x9;&lt;/span&gt;&lt;span style=&quot;white-space: pre;&quot;&gt;&#x9;&lt;/span&gt;A13.B&lt;span style=&quot;white-space: pre;&quot;&gt;&#x9;&lt;/span&gt;&lt;span style=&quot;white-space: pre;&quot;&gt;&#x9;&lt;/span&gt;A12.B&lt;span style=&quot;white-space: pre;&quot;&gt;&#x9;&lt;/span&gt;&lt;span style=&quot;white-space: pre;&quot;&gt;&#x9;&lt;/span&gt;A11.B&lt;span style=&quot;white-space: pre;&quot;&gt;&#x9;&lt;/span&gt;&lt;span style=&quot;white-space: pre;&quot;&gt;&#x9;&lt;/span&gt;A10.B&lt;span style=&quot;white-space: pre;&quot;&gt;&#x9;&lt;/span&gt;&lt;span style=&quot;white-space: pre;&quot;&gt;&#x9;&lt;/span&gt;A9.B&lt;span style=&quot;white-space: pre;&quot;&gt;&#x9;&lt;/span&gt;&lt;span style=&quot;white-space: pre;&quot;&gt;&#x9;&lt;/span&gt;A8.B&lt;span style=&quot;white-space: pre;&quot;&gt;&#x9;&lt;/span&gt;&lt;span style=&quot;white-space: pre;&quot;&gt;&#x9;&lt;/span&gt;A7.B&lt;span style=&quot;white-space: pre;&quot;&gt;&#x9;&lt;/span&gt;&lt;span style=&quot;white-space: pre;&quot;&gt;&#x9;&lt;/span&gt;A6.B&lt;span style=&quot;white-space: pre;&quot;&gt;&#x9;&lt;/span&gt;&lt;span style=&quot;white-space: pre;&quot;&gt;&#x9;&lt;/span&gt;A5.B&lt;span style=&quot;white-space: pre;&quot;&gt;&#x9;&lt;/span&gt;&lt;span style=&quot;white-space: pre;&quot;&gt;&#x9;&lt;/span&gt;A4.B&lt;span style=&quot;white-space: pre;&quot;&gt;&#x9;&lt;/span&gt;&lt;span style=&quot;white-space: pre;&quot;&gt;&#x9;&lt;/span&gt;A3.B&lt;span style=&quot;white-space: pre;&quot;&gt;&#x9;&lt;/span&gt;&lt;span style=&quot;white-space: pre;&quot;&gt;&#x9;&lt;/span&gt;A2.B&lt;span style=&quot;white-space: pre;&quot;&gt;&#x9;&lt;/span&gt;&lt;span style=&quot;white-space: pre;&quot;&gt;&#x9;&lt;/span&gt;A1.B&lt;span style=&quot;white-space: pre;&quot;&gt;&#x9;&lt;/span&gt;&lt;span style=&quot;white-space: pre;&quot;&gt;&#x9;&lt;/span&gt;A0.B" style="text;html=1;align=center;verticalAlign=middle;resizable=0;points=[];autosize=1;strokeColor=none;fillColor=none;" vertex="1" parent="1">
          <mxGeometry x="2230" y="1366" width="1170" height="30" as="geometry" />
        </mxCell>
      </root>
    </mxGraphModel>
  </diagram>
</mxfile>
